# Blender 3.3.1
# www.blender.org
mtllib axe.mtl
o axe
v 0.747258 0.586285 1.134850
v 0.747222 0.632879 0.906502
v 0.657043 0.683670 0.917217
v 0.567001 0.632642 0.906483
v 0.567036 0.586048 1.134830
v 0.567137 0.530822 0.885034
v 0.567173 0.484572 1.111811
v 0.657316 0.480031 0.874320
v 0.657351 0.433952 1.100312
v 0.726221 0.624023 0.889506
v 0.747359 0.531060 0.885054
v 0.747394 0.484809 1.111831
v 0.657306 0.465553 1.135649
v 0.714283 0.562411 1.156042
v 0.698289 0.506833 1.145720
v 0.657079 0.636904 1.146349
v 0.600070 0.562261 1.156030
v 0.714369 0.497889 1.142453
v 0.657133 0.594597 1.162833
v 0.600156 0.497739 1.142440
v 0.698296 0.497922 1.187998
v 0.657289 0.474686 1.183108
v 0.616150 0.553089 1.155481
v 0.616212 0.506725 1.145711
v 0.616157 0.544185 1.197754
v 0.616219 0.497814 1.187989
v 0.639212 0.505047 1.224127
v 0.657158 0.576326 1.160365
v 0.657165 0.567421 1.202643
v 0.698234 0.544292 1.197763
v 0.698227 0.553197 1.155490
v 0.657282 0.483590 1.140835
v 0.588128 0.545431 0.874729
v 0.588108 0.603987 0.404764
v 0.588023 0.623842 0.889491
v 0.726326 0.545613 0.874744
v 0.657282 0.506314 0.867356
v 0.657073 0.663141 0.896874
v 0.657152 0.643972 0.405303
v 0.657178 0.627815 0.367493
v 0.604372 0.597369 0.364629
v 0.726301 0.604168 0.404779
v 0.726406 0.524391 0.403706
v 0.588208 0.524209 0.403691
v 0.657362 0.484405 0.403167
v 0.710068 0.617601 0.090552
v 0.657182 0.647907 0.093409
v 0.604452 0.536617 0.358903
v 0.710064 0.597508 0.364641
v 0.710144 0.536756 0.358914
v 0.657343 0.526408 0.081962
v 0.657308 0.574871 -0.180260
v 0.710116 0.603198 -0.168762
v 0.710148 0.556854 0.084831
v 0.657339 0.506316 0.356046
v 0.604456 0.556715 0.084819
v 0.604376 0.617462 0.090540
v 0.726540 0.629475 -0.254640
v 0.726454 0.690995 -0.203923
v 0.604347 0.659584 -0.145779
v 0.710039 0.659723 -0.145767
v 0.657154 0.687916 -0.134281
v 0.604424 0.603059 -0.168774
v 0.587949 0.629293 -0.254655
v 0.587862 0.690812 -0.203939
v 0.587875 0.726714 -0.291151
v 0.657111 0.724265 -0.173560
v 0.657281 0.603908 -0.278299
v 0.657234 0.646386 -0.360783
v 0.674662 0.505328 1.224178
v 0.657179 0.495983 1.222322
v 0.640244 0.172123 1.054958
v 0.657818 0.113897 0.687114
v 0.628693 0.482142 0.902282
v 0.665898 0.067021 1.078276
v 0.671785 0.270014 0.767539
v 0.628723 0.444828 1.078005
v 0.670603 0.173051 1.055036
v 0.668956 0.311839 0.686971
v 0.688480 0.444217 1.077954
v 0.668763 0.401182 0.618536
v 0.635043 0.303338 0.848996
v 0.677591 0.303626 0.849020
v 0.690863 0.481407 0.902221
v 0.657672 0.235132 0.568487
v 0.657686 0.224709 0.566451
v 0.700961 0.710145 1.086283
v 0.702455 0.688513 1.141740
v 0.615821 0.690527 1.141909
v 0.649934 0.401378 0.618553
v 0.657544 0.337721 0.504713
v 0.657668 0.238986 0.556051
v 0.643855 0.269514 0.767497
v 0.657905 0.038229 0.801218
v 0.646763 0.311545 0.686947
v 0.657945 -0.004320 0.950043
v 0.646759 0.066996 1.078274
v 0.615831 0.699787 0.943546
v 0.614582 0.712148 1.086452
v 0.676172 0.525919 1.228280
v 0.657128 0.537905 1.230714
v 0.657113 0.513508 1.261296
v 0.637574 0.526196 1.228342
v 0.726444 0.671776 -0.337661
v 0.726366 0.726896 -0.291135
v 0.657072 0.760749 -0.261422
v 0.587952 0.671594 -0.337676
v 0.657960 -0.030922 1.127399
v 0.701668 0.697811 0.943380
vn 0.7881 0.3597 0.4996
vn 0.7804 0.5283 -0.3346
vn -0.0013 0.9724 -0.2331
vn -0.7817 0.5262 -0.3348
vn -0.7891 0.3576 0.4994
vn -0.7712 -0.3467 -0.5339
vn -0.7896 -0.5333 0.3035
vn 0.0011 -0.7752 -0.6317
vn 0.0013 -0.9785 0.2060
vn 0.6692 0.5292 -0.5216
vn 0.7722 -0.3447 -0.5337
vn 0.7909 -0.5312 0.3037
vn 0.0007 -0.5975 0.8019
vn 0.3453 0.0044 0.9385
vn 0.5083 0.1214 0.8526
vn 0.5089 -0.4530 0.7320
vn -0.0011 0.8019 0.5974
vn -0.3455 0.0035 0.9384
vn 0.3552 -0.3923 0.8485
vn -0.0004 0.1926 0.9813
vn -0.3544 -0.3932 0.8484
vn 0.8230 -0.5303 0.2034
vn 0.0015 -0.9937 0.1116
vn 0.0009 -0.7411 0.6714
vn -0.5088 0.1201 0.8525
vn -0.5079 -0.4544 0.7318
vn -0.0006 0.4080 0.9130
vn -0.8330 0.4044 0.3775
vn -0.8221 -0.5333 0.1996
vn -0.6738 -0.5518 0.4914
vn 0.0002 0.8828 0.4698
vn 0.8303 0.4047 0.3831
vn -0.7357 -0.2659 -0.6229
vn -0.6705 0.5275 -0.5217
vn -0.8535 0.4826 -0.1967
vn 0.7365 -0.2639 -0.6228
vn 0.0011 -0.7332 -0.6800
vn -0.0011 0.8812 -0.4728
vn -0.0013 0.9789 -0.2041
vn -0.0013 0.9826 -0.1859
vn -0.8413 0.5002 -0.2050
vn 0.8523 0.4848 -0.1965
vn 0.8466 -0.4991 -0.1851
vn -0.8452 -0.5013 -0.1853
vn 0.0013 -0.9835 -0.1807
vn 0.8400 0.5024 -0.2048
vn 0.8723 0.4853 0.0601
vn -0.0013 0.9923 0.1237
vn 0.0013 -0.9640 -0.2659
vn -0.8442 -0.4766 -0.2453
vn 0.8455 -0.4744 -0.2450
vn 0.0013 -0.9920 -0.1262
vn 0.0013 -0.9778 -0.2094
vn 0.8357 -0.5476 -0.0425
vn 0.8592 -0.5074 -0.0651
vn -0.8579 -0.5097 -0.0653
vn -0.8736 0.4830 0.0599
vn 0.8368 -0.5259 -0.1521
vn 0.8760 0.3851 0.2903
vn -0.8798 0.3914 0.2698
vn 0.8787 0.3937 0.2700
vn -0.0012 0.8920 0.4521
vn -0.8342 -0.5497 -0.0427
vn -0.8354 -0.5281 -0.1523
vn -0.8771 0.3828 0.2901
vn -0.6889 0.6557 -0.3090
vn -0.0012 0.8489 0.5286
vn 0.0013 -0.9250 -0.3800
vn 0.0005 -0.2935 -0.9559
vn 0.6849 -0.0140 -0.7285
vn 0.6784 -0.5420 0.4959
vn 0.0065 -0.8968 0.4424
vn -0.9993 -0.0361 0.0022
vn 0.9964 -0.0561 -0.0641
vn -0.7165 0.1312 -0.6851
vn -0.6046 0.5864 -0.5391
vn 0.6178 0.5744 -0.5369
vn -0.5888 0.3634 0.7219
vn 0.6144 0.3481 0.7081
vn 0.6804 0.7261 0.0990
vn -0.0004 0.2165 0.9763
vn -0.0166 0.8867 0.4621
vn -0.0000 -0.0842 0.9964
vn -0.0089 0.6059 0.7955
vn -0.7256 -0.1523 0.6710
vn 0.7236 -0.1583 0.6719
vn 0.0087 0.8730 -0.4876
vn -0.0060 0.9234 -0.3839
vn 0.0024 0.2865 -0.9581
vn 0.9937 0.0227 -0.1093
vn -0.6720 0.7327 0.1077
vn 0.9978 -0.0658 -0.0004
vn -0.9983 -0.0279 -0.0512
vn -0.9968 -0.0669 -0.0436
vn -0.9944 0.0189 -0.1038
vn -0.9923 -0.1227 -0.0183
vn -0.9991 -0.0415 -0.0086
vn 0.9969 -0.0661 -0.0438
vn 0.9974 -0.0711 -0.0112
vn 0.9980 -0.0608 -0.0176
vn 0.7256 0.1216 -0.6773
vn 0.9961 -0.0873 -0.0132
vn -0.9960 -0.0855 -0.0242
vn 0.9971 -0.0447 -0.0611
vn 0.9946 -0.0986 -0.0309
vn -0.9949 -0.0962 -0.0295
vn -0.9972 -0.0558 -0.0502
vn 0.7481 0.2543 0.6130
vn 0.0104 0.7286 0.6848
vn 0.0052 -0.1149 0.9934
vn -0.7462 0.2580 0.6137
vn 0.6872 0.6576 -0.3088
vn -0.0013 0.9960 -0.0894
vn -0.6847 -0.0158 -0.7287
vn 0.9981 -0.0516 -0.0332
vn -0.0007 0.4484 0.8939
vn -0.9963 -0.0721 -0.0468
vn 0.9970 -0.0561 -0.0526
vn -0.0091 0.2145 0.9767
vn -0.0123 0.8873 0.4610
vn 0.0070 0.6081 0.7938
vn -0.0160 0.9247 -0.3803
vn -0.0014 0.2856 -0.9584
vn -0.9972 -0.0197 -0.0721
vn -0.9944 -0.0717 -0.0777
vn 0.9968 -0.0662 -0.0446
vn 0.9973 -0.0719 -0.0117
vn -0.9963 -0.0811 -0.0265
vn 0.9963 -0.0386 -0.0767
vn -0.9963 -0.0558 -0.0651
vt 0.686390 0.413840
vt 0.686190 0.617530
vt 0.753340 0.618920
vt 0.686190 0.617530
vt 0.686390 0.413840
vt 0.620900 0.618250
vt 0.626980 0.415240
vt 0.550750 0.620800
vt 0.555930 0.405390
vt 0.685810 0.641840
vt 0.411490 0.130970
vt 0.620900 0.618250
vt 0.626980 0.415240
vt 0.575380 0.362980
vt 0.683970 0.375500
vt 0.634570 0.357450
vt 0.918520 0.646570
vt 0.752130 0.402740
vt 0.683970 0.375500
vt 0.632100 0.376970
vt 0.734160 0.357660
vt 0.632100 0.376970
vt 0.916030 0.609450
vt 0.944310 0.596100
vt 0.681880 0.356070
vt 0.886590 0.644960
vt 0.634570 0.357450
vt 0.918520 0.646570
vt 0.889870 0.608620
vt 0.916030 0.609450
vt 0.909540 0.573350
vt 0.722680 0.341290
vt 0.855950 0.634840
vt 0.862550 0.595790
vt 0.889870 0.608620
vt 0.681880 0.356070
vt 0.886590 0.644960
vt 0.585930 0.345620
vt 0.951270 0.638330
vt 0.399910 0.209730
vt 0.622000 0.642490
vt 0.079190 0.144730
vt 0.685810 0.641840
vt 0.411490 0.130970
vt 0.622000 0.642490
vt 0.399910 0.209730
vt 0.558930 0.647240
vt 0.393620 0.286320
vt 0.743620 0.638070
vt 0.416290 0.053970
vt 0.078120 0.061140
vt 0.938310 0.246630
vt 0.048600 0.072420
vt 0.049110 0.144350
vt 0.940590 0.192460
vt 0.079190 0.144730
vt 0.077570 0.210730
vt 0.077570 0.210730
vt 0.074300 0.293980
vt 0.763390 0.172990
vt 0.760540 0.226790
vt 0.044340 0.203180
vt 0.942490 0.138340
vt 0.049110 0.144350
vt 0.940590 0.192460
vt 0.044340 0.203180
vt 0.942490 0.138340
vt 0.769590 0.065810
vt 0.602520 0.061460
vt 0.604410 0.114250
vt 0.766820 0.119370
vt 0.037400 0.276820
vt 0.944760 0.084290
vt 0.766820 0.119370
vt 0.763390 0.172990
vt 0.551910 0.119580
vt 0.570230 0.175460
vt 0.610370 0.168270
vt 0.610370 0.168270
vt 0.615780 0.221060
vt 0.604410 0.114250
vt 0.551910 0.119580
vt 0.570230 0.175460
vt 0.915170 0.447300
vt 0.516880 0.185690
vt 0.587440 0.236960
vt 0.542500 0.059520
vt 0.845150 0.383600
vt 0.488260 0.069830
vt 0.909540 0.573350
vt 0.923410 0.563260
vt 0.444760 0.896580
vt 0.155500 0.459040
vt 0.076810 0.749420
vt 0.663970 0.783550
vt 0.317520 0.636220
vt 0.096940 0.422160
vt 0.372690 0.923210
vt 0.491190 0.739690
vt 0.177740 0.710270
vt 0.628880 0.879760
vt 0.317560 0.486530
vt 0.445860 0.925130
vt 0.155500 0.459040
vt 0.192380 0.783140
vt 0.433800 0.738850
vt 0.629400 0.936030
vt 0.317560 0.486530
vt 0.362750 0.734410
vt 0.236240 0.854170
vt 0.546180 0.774190
vt 0.207260 0.649470
vt 0.546970 0.736620
vt 0.207260 0.649470
vt 0.664410 0.728630
vt 0.317520 0.636220
vt 0.133200 0.866840
vt 0.126870 0.866730
vt 0.473450 0.524800
vt 0.898310 0.785200
vt 0.897030 0.728990
vt 0.467550 0.475860
vt 0.799650 0.943710
vt 0.467550 0.475860
vt 0.955590 0.728980
vt 0.799650 0.862120
vt 0.362110 0.751020
vt 0.236370 0.854190
vt 0.280120 0.737430
vt 0.185360 0.936310
vt 0.133940 0.877640
vt 0.490580 0.764360
vt 0.177740 0.710270
vt 0.046490 0.643430
vt 0.433290 0.758450
vt 0.192220 0.783110
vt 0.039710 0.514720
vt 0.372350 0.905200
vt 0.096940 0.422160
vt 0.803740 0.799400
vt 0.448890 0.639360
vt 0.955490 0.920670
vt 0.956700 0.785190
vt 0.473450 0.524800
vt 0.893710 0.573590
vt 0.878610 0.564580
vt 0.897110 0.529930
vt 0.893710 0.573590
vt 0.867680 0.319880
vt 0.499800 0.131410
vt 0.915160 0.319880
vt 0.516880 0.185690
vt 0.944860 0.383590
vt 0.532560 0.249600
vt 0.867700 0.447320
vt 0.499800 0.131410
vt 0.045720 0.365430
vt 0.298770 0.918290
vt 0.448890 0.639360
vt 0.803740 0.723560
vt 0.897470 0.920680
s 1
usemtl wood.001
f 33/40/33 35/44/34 34/42/35
f 39/51/39 40/53/40 41/54/41
f 10/11/10 42/56/42 39/51/39
f 36/46/36 43/57/43 42/56/42
f 37/48/37 33/40/33 44/58/44
f 35/44/34 38/50/38 39/51/39
f 37/48/37 45/59/45 43/57/43
f 49/65/46 46/60/47 47/61/48
f 43/57/43 45/59/45 55/72/49
f 34/42/35 41/54/41 48/62/50
f 39/51/39 42/56/42 49/64/46
f 42/56/42 43/57/43 50/66/51
f 44/58/44 48/62/50 55/72/49
f 51/68/52 52/69/53 53/70/54
f 50/67/51 54/71/55 46/60/47
f 55/73/49 48/63/50 56/74/56
f 41/55/41 40/52/40 47/61/48
f 55/73/49 51/68/52 54/71/55
f 48/63/50 41/55/41 57/75/57
f 53/70/54 58/76/58 59/77/59
f 56/74/56 57/75/57 60/78/60
f 46/60/47 61/79/61 62/80/62
f 54/71/55 53/70/54 61/79/61
f 51/68/52 56/74/56 63/81/63
f 57/75/57 47/61/48 62/80/62
f 64/82/64 65/83/65 66/85/66
f 52/69/53 63/81/63 64/82/64
f 60/78/60 62/80/62 67/86/67
f 52/69/53 68/87/68 58/76/58
f 63/81/63 60/78/60 65/83/65
f 61/79/61 59/77/59 67/86/67
f 68/87/68 69/89/69 104/150/70
f 105/151/112 104/149/70 69/88/69
f 66/84/66 106/153/113 69/88/69
f 59/77/59 105/152/112 106/154/113
f 58/76/58 104/150/70 105/152/112
f 68/87/68 64/82/64 107/156/114
f 65/83/65 67/86/67 106/154/113
f 44/58/44 33/40/33 34/42/35
f 34/42/35 39/51/39 41/54/41
f 38/50/38 10/11/10 39/51/39
f 10/11/10 36/46/36 42/56/42
f 45/59/45 37/48/37 44/58/44
f 34/42/35 35/44/34 39/51/39
f 36/46/36 37/48/37 43/57/43
f 40/52/40 49/65/46 47/61/48
f 50/66/51 43/57/43 55/72/49
f 44/58/44 34/42/35 48/62/50
f 40/53/40 39/51/39 49/64/46
f 49/64/46 42/56/42 50/66/51
f 45/59/45 44/58/44 55/72/49
f 54/71/55 51/68/52 53/70/54
f 49/65/46 50/67/51 46/60/47
f 51/68/52 55/73/49 56/74/56
f 57/75/57 41/55/41 47/61/48
f 50/67/51 55/73/49 54/71/55
f 56/74/56 48/63/50 57/75/57
f 61/79/61 53/70/54 59/77/59
f 63/81/63 56/74/56 60/78/60
f 47/61/48 46/60/47 62/80/62
f 46/60/47 54/71/55 61/79/61
f 52/69/53 51/68/52 63/81/63
f 60/78/60 57/75/57 62/80/62
f 107/156/114 64/82/64 66/85/66
f 68/87/68 52/69/53 64/82/64
f 65/83/65 60/78/60 67/86/67
f 53/70/54 52/69/53 58/76/58
f 64/82/64 63/81/63 65/83/65
f 62/80/62 61/79/61 67/86/67
f 58/76/58 68/87/68 104/150/70
f 106/153/113 105/151/112 69/88/69
f 107/155/114 66/84/66 69/88/69
f 67/86/67 59/77/59 106/154/113
f 59/77/59 58/76/58 105/152/112
f 69/89/69 68/87/68 107/156/114
f 66/85/66 65/83/65 106/154/113
usemtl Metal2
f 1/1/1 2/2/2 3/3/3
f 3/3/3 4/4/4 5/5/5
f 4/4/4 6/6/6 7/7/7
f 6/6/6 8/8/8 9/9/9
f 3/3/3 2/2/2 10/10/10
f 9/9/9 8/8/8 11/12/11
f 12/13/12 11/12/11 2/2/2
f 7/7/7 9/9/9 13/14/13
f 14/15/14 31/36/15 15/16/16
f 16/18/17 5/5/5 17/19/18
f 12/13/12 18/20/19 13/14/13
f 16/18/17 19/21/20 14/15/14
f 5/5/5 7/7/7 20/22/21
f 1/1/1 14/15/14 18/20/19
f 15/17/16 21/23/22 22/24/23
f 20/22/21 13/14/13 32/38/24
f 19/21/20 17/19/18 23/25/25
f 18/20/19 15/16/16 32/38/24
f 17/19/18 20/22/21 24/27/26
f 19/21/20 28/32/27 31/36/15
f 25/29/28 26/30/29 27/31/30
f 24/28/26 26/30/29 25/29/28
f 28/33/27 29/34/31 30/35/32
f 15/17/16 31/37/15 30/35/32
f 32/39/24 22/24/23 26/30/29
f 28/33/27 23/26/25 25/29/28
f 4/4/4 35/43/34 33/41/33
f 2/2/2 11/12/11 36/45/36
f 6/6/6 33/41/33 37/47/37
f 3/3/3 38/49/38 35/43/34
f 11/12/11 8/8/8 37/47/37
f 21/23/22 70/90/71 71/91/72
s 0
f 74/96/73 82/112/73 72/93/73
f 79/105/74 76/100/74 73/94/74
s 1
f 74/95/75 98/140/76 109/160/77
f 89/125/78 88/121/79 87/120/80
s 0
f 72/92/81 97/138/81 75/98/81
f 95/135/82 93/132/82 76/99/82
f 77/101/83 72/92/83 78/103/83
f 90/127/84 95/135/84 79/106/84
s 1
f 77/101/85 80/107/86 88/123/79
s 0
f 91/129/87 90/127/87 81/109/87
f 93/132/88 82/111/88 83/113/88
f 74/95/89 84/115/89 83/113/89
f 85/117/90 79/105/90 86/118/90
s 1
f 87/119/80 88/122/79 80/108/86
f 77/102/85 89/124/78 99/144/91
s 0
f 78/104/92 84/116/92 80/108/92
f 90/128/93 91/130/93 92/131/93
f 93/133/94 73/94/94 94/134/94
f 95/136/95 85/117/95 86/118/95
f 96/137/96 108/157/96 97/139/96
s 1
f 74/96/75 99/144/91 98/141/76
s 0
f 74/96/97 72/93/97 77/102/97
f 76/100/98 83/114/98 94/134/98
f 83/114/99 84/116/99 78/104/99
f 78/104/100 96/137/100 94/134/100
s 1
f 84/116/101 109/159/77 87/119/80
f 98/142/76 99/143/91 87/120/80
s 0
f 75/97/102 108/157/102 96/137/102
f 94/134/103 96/137/103 72/93/103
f 81/110/104 79/105/104 92/131/104
f 79/105/105 85/117/105 92/131/105
f 85/117/106 95/136/106 92/131/106
f 95/136/107 86/118/107 73/94/107
s 1
f 100/145/108 101/146/109 102/147/110
f 30/35/32 100/145/108 70/90/71
f 26/30/29 22/24/23 71/91/72
f 101/146/109 103/148/111 102/147/110
f 70/90/71 100/145/108 102/147/110
f 103/148/111 27/31/30 102/147/110
f 27/31/30 71/91/72 102/147/110
f 71/91/72 70/90/71 102/147/110
f 29/34/31 101/146/109 100/145/108
f 29/34/31 25/29/28 103/148/111
s 0
f 78/104/115 75/97/115 96/137/115
f 75/98/116 97/138/116 108/158/116
f 72/93/117 96/137/117 97/139/117
s 1
f 16/18/17 1/1/1 3/3/3
f 16/18/17 3/3/3 5/5/5
f 5/5/5 4/4/4 7/7/7
f 7/7/7 6/6/6 9/9/9
f 38/49/38 3/3/3 10/10/10
f 12/13/12 9/9/9 11/12/11
f 1/1/1 12/13/12 2/2/2
f 20/22/21 7/7/7 13/14/13
f 18/20/19 14/15/14 15/16/16
f 19/21/20 16/18/17 17/19/18
f 9/9/9 12/13/12 13/14/13
f 1/1/1 16/18/17 14/15/14
f 17/19/18 5/5/5 20/22/21
f 12/13/12 1/1/1 18/20/19
f 32/39/24 15/17/16 22/24/23
f 24/27/26 20/22/21 32/38/24
f 28/32/27 19/21/20 23/25/25
f 13/14/13 18/20/19 32/38/24
f 23/25/25 17/19/18 24/27/26
f 14/15/14 19/21/20 31/36/15
f 103/148/111 25/29/28 27/31/30
f 23/26/25 24/28/26 25/29/28
f 31/37/15 28/33/27 30/35/32
f 21/23/22 15/17/16 30/35/32
f 24/28/26 32/39/24 26/30/29
f 29/34/31 28/33/27 25/29/28
f 6/6/6 4/4/4 33/41/33
f 10/10/10 2/2/2 36/45/36
f 8/8/8 6/6/6 37/47/37
f 4/4/4 3/3/3 35/43/34
f 36/45/36 11/12/11 37/47/37
f 22/24/23 21/23/22 71/91/72
s 0
f 86/118/118 79/105/118 73/94/118
s 1
f 84/115/101 74/95/75 109/160/77
f 99/143/91 89/125/78 87/120/80
s 0
f 78/103/119 72/92/119 75/98/119
f 79/106/120 95/135/120 76/99/120
f 80/107/83 77/101/83 78/103/83
f 81/109/121 90/127/121 79/106/121
s 1
f 89/126/78 77/101/85 88/123/79
s 0
f 76/99/122 93/132/122 83/113/122
f 82/111/123 74/95/123 83/113/123
s 1
f 84/116/101 87/119/80 80/108/86
f 74/96/75 77/102/85 99/144/91
s 0
f 95/136/124 90/128/124 92/131/124
f 82/112/125 93/133/125 94/134/125
f 73/94/126 76/100/126 94/134/126
f 83/114/127 78/104/127 94/134/127
s 1
f 109/161/77 98/142/76 87/120/80
s 0
f 82/112/128 94/134/128 72/93/128
f 91/130/129 81/110/129 92/131/129
f 93/133/130 95/136/130 73/94/130
s 1
f 21/23/22 30/35/32 70/90/71
f 27/31/30 26/30/29 71/91/72
f 30/35/32 29/34/31 100/145/108
f 101/146/109 29/34/31 103/148/111
