# Blender 3.3.1
# www.blender.org
mtllib grass_border2.mtl
o grass_border2
v -2.223261 -3.841492 -1.373806
v -2.429659 -4.041492 -1.430595
v -2.429119 -3.841492 -1.644663
v -2.287798 -3.982913 -1.387335
v -2.317402 -3.956962 -1.515914
v -2.433362 -3.982913 -1.578860
v -2.287416 -3.841492 -1.538704
v -2.429659 -0.041492 -1.430595
v -2.223261 -0.241492 -1.373806
v -2.429119 -0.241492 -1.644663
v -2.287798 -0.100070 -1.387335
v -2.317402 -0.126022 -1.515914
v -2.287416 -0.241492 -1.538704
v -2.433362 -0.100070 -1.578860
v 2.521005 -4.041492 0.915111
v 2.435593 -3.841492 0.698891
v 2.752243 -3.841492 0.891128
v 2.484847 -3.982913 0.766100
v 2.596293 -3.956964 0.791097
v 2.610139 -3.841492 0.768291
v 2.669890 -3.982913 0.878440
v 2.435593 -0.241492 0.698891
v 2.521005 -0.041492 0.915111
v 2.752243 -0.241492 0.891128
v 2.484847 -0.100070 0.766100
v 2.596293 -0.126019 0.791097
v 2.669890 -0.100070 0.878440
v 2.610139 -0.241492 0.768291
v 3.278768 -4.041492 1.936504
v 3.455740 -3.841492 1.839377
v 3.400363 -3.841492 2.097648
v 3.403402 -3.982913 1.867717
v 3.450256 -3.956962 1.973274
v 3.489383 -3.841492 1.981663
v 3.364245 -3.982913 2.050342
v 3.278768 -0.041492 1.936504
v 3.400363 -0.241492 2.097648
v 3.455740 -0.241492 1.839377
v 3.364245 -0.100070 2.050342
v 3.450256 -0.126022 1.973273
v 3.489383 -0.241492 1.981663
v 3.403402 -0.100070 1.867717
v 0.001556 -4.041492 3.769958
v 0.174542 -3.841492 3.902352
v -0.173205 -3.841492 3.900000
v 0.123921 -3.982913 3.856865
v 0.000611 -3.956962 3.909618
v 0.000346 -3.841492 3.948819
v -0.121973 -3.982913 3.855203
v 0.001556 -0.041492 3.769958
v -0.173205 -0.241492 3.900000
v 0.174542 -0.241492 3.902352
v -0.121973 -0.100070 3.855203
v 0.000611 -0.126022 3.909618
v 0.000346 -0.241492 3.948819
v 0.123921 -0.100070 3.856865
v -3.266772 -4.041492 1.882988
v -3.290897 -3.841492 2.100000
v -3.468757 -3.841492 1.800054
v -3.277870 -3.982913 2.032904
v -3.386783 -3.956962 1.954151
v -3.420696 -3.841492 1.974261
v -3.403637 -3.982913 1.820811
v -3.266772 -0.041492 1.882988
v -3.468757 -0.241492 1.800054
v -3.290897 -0.241492 2.100000
v -3.403636 -0.100070 1.820810
v -3.386782 -0.126022 1.954151
v -3.420695 -0.241492 1.974261
v -3.277870 -0.100070 2.032904
v -3.352180 -4.041492 -1.785316
v -3.554420 -3.841492 -1.879199
v -3.372400 -3.841492 -2.007366
v -3.491962 -3.982913 -1.847123
v -3.474921 -3.956962 -1.959629
v -3.506260 -3.841492 -2.004137
v -3.363255 -3.982913 -1.937751
v -3.352180 -0.041492 -1.785316
v -3.372400 -0.241492 -2.007366
v -3.554420 -0.241492 -1.879199
v -3.363255 -0.100070 -1.937751
v -3.474921 -0.126022 -1.959629
v -3.506260 -0.241492 -2.004137
v -3.491962 -0.100070 -1.847123
v -0.895001 -4.041492 1.240256
v -0.997185 -3.841492 0.884809
v -0.655376 -3.841492 0.958540
v -0.918795 -3.982913 1.031378
v -0.847202 -3.956964 1.018665
v -0.834763 -3.841492 0.960999
v -0.787216 -3.982913 1.059761
v -0.895001 -0.041492 1.240256
v -0.655376 -0.241492 0.958540
v -0.997185 -0.241492 0.884809
v -0.787216 -0.100070 1.059761
v -0.847202 -0.126019 1.018665
v -0.834763 -0.241492 0.960999
v -0.918795 -0.100070 1.031379
v 0.986238 -4.041492 0.669420
v 0.972305 -3.841492 0.464643
v 0.976386 -3.982913 0.524621
v 0.986238 -0.041492 0.669420
v 0.972305 -0.241492 0.464643
v 0.976385 -0.100070 0.524621
v -2.117800 -0.241492 -0.279351
v -2.290086 -0.041492 0.017873
v -1.948192 -0.241492 0.051531
v -2.162713 -0.100070 -0.134712
v -2.105346 -0.126019 -0.076824
v -2.091842 -0.100070 0.003548
v -2.060177 -0.241492 -0.099977
v -1.948192 -3.841492 0.051531
v -2.290086 -4.041492 0.017873
v -2.117800 -3.841492 -0.279351
v -2.091841 -3.982913 0.003548
v -2.105346 -3.956964 -0.076823
v -2.162713 -3.982913 -0.134712
v -2.060177 -3.841492 -0.099977
vn 0.7347 -0.1731 -0.6559
vn 0.7347 0.1731 -0.6559
vn 0.8867 0.1833 -0.4245
vn 0.8867 -0.1833 -0.4245
vn 0.6343 -0.1876 0.7500
vn 0.6343 0.1876 0.7500
vn 0.3808 0.1905 0.9048
vn 0.3808 -0.1905 0.9048
vn -0.3926 -0.1951 0.8988
vn -0.3926 0.1951 0.8988
vn -0.5807 0.1955 0.7903
vn -0.5807 -0.1955 0.7903
vn -0.9724 -0.1933 0.1305
vn -0.9724 0.1933 0.1305
vn -0.9653 0.2045 -0.1626
vn -0.9653 -0.2045 -0.1626
vn -0.0666 -0.1943 -0.9787
vn -0.0666 0.1943 -0.9787
vn 0.2430 0.1727 -0.9545
vn 0.2430 -0.1727 -0.9545
vn 0.7098 -0.2178 -0.6698
vn 0.7098 0.2178 -0.6698
vn 0.5493 0.2285 -0.8038
vn 0.5493 -0.2285 -0.8038
vn 0.2239 -0.9595 -0.1708
vn 0.1671 -0.9822 -0.0854
vn 0.0370 -0.9845 -0.1714
vn -0.0147 -0.9762 -0.2163
vn 0.1355 -0.9653 -0.2231
vn 0.2361 -0.9703 0.0522
vn -0.0026 -0.9590 0.2835
vn -0.2442 -0.9588 0.1452
vn -0.1212 -0.9778 -0.1712
vn 0.1355 0.9653 -0.2231
vn -0.0147 0.9762 -0.2163
vn 0.0370 0.9845 -0.1714
vn 0.1671 0.9822 -0.0854
vn 0.2239 0.9595 -0.1708
vn -0.1212 0.9778 -0.1712
vn -0.2442 0.9588 0.1452
vn -0.0026 0.9590 0.2835
vn 0.2361 0.9703 0.0522
vn -0.1691 -0.2285 -0.9587
vn -0.1691 0.2285 -0.9587
vn 0.1725 -0.2034 -0.9638
vn 0.1725 0.2034 -0.9638
vn 0.4632 0.1890 -0.8659
vn 0.4632 -0.1890 -0.8659
vn 0.9587 -0.1867 -0.2148
vn 0.6985 -0.6904 -0.1880
vn 0.6515 -0.5748 -0.4951
vn 0.7840 -0.1739 -0.5959
vn 0.3675 -0.6908 -0.6226
vn 0.6985 0.6904 -0.1880
vn 0.6515 0.5748 -0.4951
vn 0.3675 0.6908 -0.6226
vn 0.9587 0.1867 -0.2148
vn 0.7840 0.1739 -0.5959
vn 0.2112 -0.6777 -0.7043
vn 0.4351 -0.5451 -0.7166
vn 0.5275 -0.6778 -0.5122
vn 0.5140 -0.1384 -0.8466
vn 0.2112 0.6777 -0.7043
vn 0.4351 0.5451 -0.7166
vn 0.5140 0.1384 -0.8466
vn 0.5275 0.6778 -0.5122
vn 0.6564 -0.7067 -0.2640
vn 0.7880 -0.5920 0.1690
vn 0.4888 -0.7087 0.5086
vn 0.9610 -0.1844 0.2061
vn 0.4888 0.7087 0.5086
vn 0.7880 0.5920 0.1690
vn 0.6564 0.7067 -0.2640
vn 0.9610 0.1844 0.2061
vn 0.2532 -0.6928 0.6753
vn -0.0055 -0.5802 0.8144
vn -0.2622 -0.6939 0.6707
vn -0.0067 -0.1791 0.9838
vn -0.2622 0.6939 0.6707
vn -0.0055 0.5802 0.8144
vn 0.2532 0.6928 0.6753
vn -0.0067 0.1791 0.9838
vn -0.4484 -0.6942 0.5631
vn -0.7001 -0.5810 0.4151
vn -0.7096 -0.6937 0.1236
vn -0.8461 -0.1798 0.5017
vn -0.7096 0.6937 0.1236
vn -0.7001 0.5810 0.4151
vn -0.4484 0.6942 0.5631
vn -0.8461 0.1798 0.5017
vn -0.6514 -0.7419 -0.1592
vn -0.4394 -0.6462 -0.6240
vn 0.0699 -0.7411 -0.6677
vn -0.5605 -0.2286 -0.7960
vn 0.0699 0.7411 -0.6677
vn -0.4394 0.6462 -0.6240
vn -0.6514 0.7419 -0.1592
vn -0.5605 0.2286 -0.7960
vn 0.2693 -0.8209 -0.5036
vn 0.1468 -0.7180 -0.6804
vn -0.0378 -0.8209 -0.5698
vn 0.2009 -0.3033 -0.9315
vn -0.0378 0.8209 -0.5698
vn 0.1468 0.7180 -0.6804
vn 0.2693 0.8209 -0.5036
vn 0.2009 0.3033 -0.9315
vn 0.9570 0.2227 -0.1858
vn 0.5881 0.7916 -0.1658
vn 0.6437 0.6904 -0.3300
vn 0.8580 0.2652 -0.4398
vn 0.4775 0.7920 -0.3805
vn 0.4775 -0.7920 -0.3805
vn 0.6437 -0.6904 -0.3300
vn 0.8580 -0.2652 -0.4398
vn 0.5881 -0.7916 -0.1658
vn 0.9570 -0.2227 -0.1858
vn -0.0493 -0.6871 -0.7249
vn -0.0493 0.6871 -0.7249
vt 0.994443 0.525000
vt 0.719469 0.458961
vt 0.023630 0.525000
vt 0.994989 0.500000
vt 0.756249 0.486392
vt 0.998624 0.500000
vt 0.742704 0.485788
vt -0.000000 0.510566
vt 0.021308 0.500000
vt 0.723427 0.474658
vt -0.000000 0.525000
vt 1.000000 0.525000
vt 0.219469 0.458961
vt 0.994443 0.975000
vt 0.023630 0.975000
vt 0.994989 1.000000
vt 0.256249 0.486392
vt 0.251716 0.489009
vt 1.000000 0.989434
vt 0.005851 1.000000
vt -0.000000 0.975000
vt 1.000000 0.975000
vt 0.021308 1.000000
vt 0.223427 0.474658
vt 0.946397 0.338373
vt 0.838288 0.525000
vt 0.812246 0.525000
vt 0.836820 0.500000
vt 0.953498 0.372510
vt 0.957020 0.370477
vt 0.833333 0.510566
vt 0.830513 0.500000
vt 0.833333 0.525000
vt 0.818494 0.500000
vt 0.957846 0.348631
vt 0.838288 0.975000
vt 0.446397 0.338373
vt 0.812246 0.975000
vt 0.836820 1.000000
vt 0.453498 0.372510
vt 0.833996 1.000000
vt 0.457846 0.365939
vt 0.833333 0.989434
vt 0.818494 1.000000
vt 0.457846 0.348631
vt 0.833333 0.975000
vt 0.946692 0.151383
vt 0.687754 0.525000
vt 0.658529 0.525000
vt 0.688642 0.500000
vt 0.957846 0.161645
vt 0.957846 0.144535
vt 0.666667 0.510566
vt 0.662772 0.500000
vt 0.666667 0.525000
vt 0.658186 0.500000
vt 0.947271 0.123894
vt 0.446693 0.151383
vt 0.658529 0.975000
vt 0.687754 0.975000
vt 0.658187 1.000000
vt 0.447271 0.123894
vt 0.452989 0.127196
vt 0.666667 0.989434
vt 0.676760 1.000000
vt 0.666667 0.975000
vt 0.688642 1.000000
vt 0.457846 0.161645
vt 0.752752 0.028964
vt 0.508137 0.525000
vt 0.491667 0.525000
vt 0.507243 0.500000
vt 0.759033 0.015215
vt 0.752266 0.011308
vt 0.500000 0.510566
vt 0.498139 0.500000
vt 0.500000 0.525000
vt 0.492582 0.500000
vt 0.740749 0.015341
vt 0.252752 0.028964
vt 0.491667 0.975000
vt 0.508137 0.975000
vt 0.492582 1.000000
vt 0.240749 0.015341
vt 0.247679 0.011340
vt 0.500000 0.989434
vt 0.501817 1.000000
vt 0.500000 0.975000
vt 0.507243 1.000000
vt 0.259033 0.015215
vt 0.558929 0.143204
vt 0.341667 0.525000
vt 0.325164 0.525000
vt 0.340739 0.500000
vt 0.551389 0.124668
vt 0.544442 0.128679
vt 0.333333 0.510566
vt 0.331534 0.500000
vt 0.333333 0.525000
vt 0.326073 0.500000
vt 0.542154 0.140454
vt 0.058929 0.143204
vt 0.325164 0.975000
vt 0.341667 0.975000
vt 0.326073 1.000000
vt 0.042154 0.140454
vt 0.042154 0.132590
vt 0.333333 0.989434
vt 0.335168 1.000000
vt 0.333333 0.975000
vt 0.340739 1.000000
vt 0.051389 0.124668
vt 0.572397 0.373467
vt 0.174836 0.525000
vt 0.143036 0.525000
vt 0.176205 0.500000
vt 0.542154 0.356264
vt 0.542154 0.362857
vt 0.166667 0.510566
vt 0.152318 0.500000
vt 0.166667 0.525000
vt 0.139076 0.500000
vt 0.576562 0.389866
vt 0.072397 0.373467
vt 0.143036 0.975000
vt 0.174836 0.975000
vt 0.139076 1.000000
vt 0.076562 0.389866
vt 0.060048 0.380331
vt 0.166667 0.989434
vt 0.171627 1.000000
vt 0.166667 0.975000
vt 0.176205 1.000000
vt 0.042154 0.356264
vt 0.811923 0.355710
vt 0.921673 0.525000
vt 0.912283 0.525000
vt 0.917779 0.500000
vt 0.852535 0.430801
vt 0.853923 0.430000
vt 0.916667 0.510566
vt 0.916667 0.500000
vt 0.916667 0.525000
vt 0.915692 0.500000
vt 0.855138 0.429299
vt 0.311923 0.355710
vt 0.912283 0.975000
vt 0.921673 0.975000
vt 0.915692 1.000000
vt 0.355138 0.429299
vt 0.353923 0.430000
vt 0.916667 0.989434
vt 0.916667 1.000000
vt 0.916667 0.975000
vt 0.917779 1.000000
vt 0.352535 0.430801
vt 0.896998 0.374639
vt 0.875000 0.525000
vt 0.874665 0.500000
vt 0.906302 0.399759
vt 0.875296 0.500000
vt 0.905515 0.400213
vt 0.396998 0.374639
vt 0.875000 0.975000
vt 0.875296 1.000000
vt 0.405515 0.400213
vt 0.874665 1.000000
vt 0.406302 0.399759
vt 0.963891 0.975000
vt 0.243635 0.399643
vt 0.953327 0.975000
vt 0.960010 1.000000
vt 0.299871 0.461207
vt 0.958333 1.000000
vt 0.301962 0.460000
vt 0.958333 0.989434
vt 0.956823 1.000000
vt 0.303845 0.458913
vt 0.958333 0.975000
vt 0.953327 0.525000
vt 0.743634 0.399643
vt 0.963891 0.525000
vt 0.956823 0.500000
vt 0.803845 0.458912
vt 0.958333 0.500000
vt 0.801962 0.460000
vt 0.958333 0.510566
vt 0.960010 0.500000
vt 0.799871 0.461207
vt 0.958333 0.525000
s 1
usemtl grass
f 17/27/1 24/38/2 38/60/3 30/48/4
f 31/49/5 37/59/6 52/82/7 44/70/8
f 45/71/9 51/81/10 66/104/11 58/92/12
f 59/93/13 65/103/14 80/126/15 72/114/16
f 100/158/17 103/164/18 22/36/19 16/26/20
f 112/180/21 107/171/22 94/148/23 86/136/24
f 2/2/25 113/181/26 85/135/27 99/157/28 15/25/29 29/47/30 43/69/31 57/91/32 71/113/33
f 23/37/34 102/163/35 92/146/36 106/170/37 8/13/38 78/124/39 64/102/40 50/80/41 36/58/42
f 87/137/43 93/147/44 103/164/18 100/158/17
f 73/115/45 79/125/46 10/15/47 3/3/48
f 1/1/49 4/4/50 5/6/51 7/12/52
f 2/2/25 6/10/53 5/7/51 4/5/50
f 3/3/48 7/11/52 5/8/51 6/9/53
f 8/13/38 11/17/54 12/18/55 14/24/56
f 9/14/57 13/22/58 12/19/55 11/16/54
f 10/15/47 14/23/56 12/20/55 13/21/58
f 15/25/29 18/29/59 19/30/60 21/35/61
f 16/26/20 20/33/62 19/31/60 18/28/59
f 17/27/1 21/34/61 19/32/60 20/33/62
f 22/36/19 25/39/63 26/41/64 28/46/65
f 23/37/34 27/45/66 26/42/64 25/40/63
f 24/38/2 28/46/65 26/43/64 27/44/66
f 29/47/30 32/51/67 33/52/68 35/57/69
f 30/48/4 34/55/70 33/53/68 32/50/67
f 31/49/5 35/56/69 33/54/68 34/55/70
f 36/58/42 39/62/71 40/63/72 42/68/73
f 37/59/6 41/66/74 40/64/72 39/61/71
f 38/60/3 42/67/73 40/65/72 41/66/74
f 43/69/31 46/73/75 47/74/76 49/79/77
f 44/70/8 48/77/78 47/75/76 46/72/75
f 45/71/9 49/78/77 47/76/76 48/77/78
f 50/80/41 53/84/79 54/85/80 56/90/81
f 51/81/10 55/88/82 54/86/80 53/83/79
f 52/82/7 56/89/81 54/87/80 55/88/82
f 57/91/32 60/95/83 61/96/84 63/101/85
f 58/92/12 62/99/86 61/97/84 60/94/83
f 59/93/13 63/100/85 61/98/84 62/99/86
f 64/102/40 67/106/87 68/107/88 70/112/89
f 65/103/14 69/110/90 68/108/88 67/105/87
f 66/104/11 70/111/89 68/109/88 69/110/90
f 71/113/33 74/117/91 75/118/92 77/123/93
f 72/114/16 76/121/94 75/119/92 74/116/91
f 73/115/45 77/122/93 75/120/92 76/121/94
f 78/124/39 81/128/95 82/129/96 84/134/97
f 79/125/46 83/132/98 82/130/96 81/127/95
f 80/126/15 84/133/97 82/131/96 83/132/98
f 85/135/27 88/139/99 89/140/100 91/145/101
f 86/136/24 90/143/102 89/141/100 88/138/99
f 87/137/43 91/144/101 89/142/100 90/143/102
f 92/146/36 95/150/103 96/151/104 98/156/105
f 93/147/44 97/154/106 96/152/104 95/149/103
f 94/148/23 98/155/105 96/153/104 97/154/106
f 105/169/107 108/172/108 109/174/109 111/179/110
f 106/170/37 110/178/111 109/175/109 108/173/108
f 107/171/22 111/179/110 109/176/109 110/177/111
f 112/180/21 115/183/112 116/185/113 118/190/114
f 113/181/26 117/189/115 116/186/113 115/184/112
f 114/182/116 118/190/114 116/187/113 117/188/115
f 100/158/17 16/26/20 18/28/59 101/159/117
f 101/160/117 18/29/59 15/25/29 99/157/28
f 105/169/107 9/14/57 11/16/54 108/172/108
f 108/173/108 11/17/54 8/13/38 106/170/37
f 3/3/48 10/15/47 13/21/58 7/11/52
f 7/12/52 13/22/58 9/14/57 1/1/49
f 24/38/2 17/27/1 20/33/62 28/46/65
f 28/46/65 20/33/62 16/26/20 22/36/19
f 17/27/1 30/48/4 32/50/67 21/34/61
f 21/35/61 32/51/67 29/47/30 15/25/29
f 38/60/3 24/38/2 27/44/66 42/67/73
f 42/68/73 27/45/66 23/37/34 36/58/42
f 37/59/6 31/49/5 34/55/70 41/66/74
f 41/66/74 34/55/70 30/48/4 38/60/3
f 31/49/5 44/70/8 46/72/75 35/56/69
f 35/57/69 46/73/75 43/69/31 29/47/30
f 52/82/7 37/59/6 39/61/71 56/89/81
f 56/90/81 39/62/71 36/58/42 50/80/41
f 51/81/10 45/71/9 48/77/78 55/88/82
f 55/88/82 48/77/78 44/70/8 52/82/7
f 45/71/9 58/92/12 60/94/83 49/78/77
f 49/79/77 60/95/83 57/91/32 43/69/31
f 66/104/11 51/81/10 53/83/79 70/111/89
f 70/112/89 53/84/79 50/80/41 64/102/40
f 65/103/14 59/93/13 62/99/86 69/110/90
f 69/110/90 62/99/86 58/92/12 66/104/11
f 59/93/13 72/114/16 74/116/91 63/100/85
f 63/101/85 74/117/91 71/113/33 57/91/32
f 80/126/15 65/103/14 67/105/87 84/133/97
f 84/134/97 67/106/87 64/102/40 78/124/39
f 79/125/46 73/115/45 76/121/94 83/132/98
f 83/132/98 76/121/94 72/114/16 80/126/15
f 73/115/45 3/3/48 6/9/53 77/122/93
f 77/123/93 6/10/53 2/2/25 71/113/33
f 10/15/47 79/125/46 81/127/95 14/23/56
f 14/24/56 81/128/95 78/124/39 8/13/38
f 112/180/21 86/136/24 88/138/99 115/183/112
f 115/184/112 88/139/99 85/135/27 113/181/26
f 103/164/18 93/147/44 95/149/103 104/165/118
f 104/166/118 95/150/103 92/146/36 102/163/35
f 93/147/44 87/137/43 90/143/102 97/154/106
f 97/154/106 90/143/102 86/136/24 94/148/23
f 87/137/43 100/158/17 101/161/117 91/144/101
f 91/145/101 101/162/117 99/157/28 85/135/27
f 22/36/19 103/164/18 104/167/118 25/39/63
f 25/40/63 104/168/118 102/163/35 23/37/34
f 94/148/23 107/171/22 110/177/111 98/155/105
f 98/156/105 110/178/111 106/170/37 92/146/36
f 1/1/49 114/182/116 117/188/115 4/4/50
f 4/5/50 117/189/115 113/181/26 2/2/25
f 107/171/22 112/180/21 118/190/114 111/179/110
f 111/179/110 118/190/114 114/182/116 105/169/107
f 1/1/49 9/14/57 105/169/107 114/182/116
