# Blender 3.3.1
# www.blender.org
mtllib grass_water3.mtl
o grass_water3
v -0.101440 -4.041492 1.176713
v 0.000000 -3.841492 0.999331
v -0.029711 -3.982913 1.051285
v -0.101440 -0.041492 1.176713
v 0.000000 -0.241492 0.999331
v -0.029711 -0.100070 1.051285
v 2.936121 -4.041492 1.769016
v 3.006379 -3.841492 1.575599
v 2.985801 -3.982913 1.632249
v 2.936121 -0.041492 1.769016
v 3.006379 -0.241492 1.575599
v 2.985801 -0.100070 1.632249
v 3.213801 -4.041492 1.953353
v 3.429384 -3.841492 1.856408
v 3.421907 -3.841492 2.065451
v 3.357651 -3.982913 1.884495
v 3.443235 -3.956962 1.961559
v 3.504803 -3.841492 1.963761
v 3.352364 -3.982913 2.032311
v 3.213801 -0.041492 1.953353
v 3.421907 -0.241492 2.065451
v 3.429384 -0.241492 1.856408
v 3.352364 -0.100070 2.032311
v 3.443235 -0.126022 1.961559
v 3.504803 -0.241492 1.963761
v 3.357651 -0.100070 1.884495
v 0.001568 -4.041492 3.769365
v 0.174103 -3.841492 3.901572
v -0.172749 -3.841492 3.899213
v 0.123613 -3.982913 3.856342
v 0.000618 -3.956962 3.909162
v 0.000353 -3.841492 3.948159
v -0.121648 -3.982913 3.854674
v 0.001568 -0.041492 3.769365
v -0.172749 -0.241492 3.899213
v 0.174103 -0.241492 3.901572
v -0.121648 -0.100070 3.854674
v 0.000618 -0.126022 3.909162
v 0.000353 -0.241492 3.948159
v 0.123613 -0.100070 3.856342
v -3.246469 -4.041492 1.874362
v -3.368300 -3.841492 2.034832
v -3.421153 -3.841492 1.773968
v -3.332216 -3.982913 1.987750
v -3.416954 -3.956962 1.908903
v -3.455736 -3.841492 1.916761
v -3.369588 -3.982913 1.803291
v -3.246469 -0.041492 1.874362
v -3.421153 -0.241492 1.773968
v -3.368300 -0.241492 2.034832
v -3.369588 -0.100070 1.803291
v -3.416954 -0.126022 1.908903
v -3.455736 -0.241492 1.916761
v -3.332216 -0.100070 1.987750
v -2.938561 -4.041492 1.463260
v -3.084205 -3.841492 1.324094
v -3.041547 -3.982913 1.364855
v -2.938561 -0.041492 1.463260
v -3.084205 -0.241492 1.324094
v -3.041547 -0.100070 1.364855
v -1.739633 -3.841492 0.436248
v -1.887384 -4.041492 0.598640
v -2.084376 -3.841492 0.501708
v -1.781519 -3.982913 0.491132
v -1.913357 -3.956962 0.461856
v -2.025289 -3.982913 0.537418
v -1.920813 -3.841492 0.422590
v -2.084376 -0.241492 0.501708
v -1.887384 -0.041492 0.598640
v -1.739633 -0.241492 0.436248
v -2.025288 -0.100070 0.537418
v -1.913357 -0.126022 0.461856
v -1.781519 -0.100070 0.491132
v -1.920812 -0.241492 0.422590
v 1.894215 -4.041492 1.653090
v 1.874952 -3.841492 1.449713
v 1.880594 -3.982913 1.509280
v 1.894215 -0.041492 1.653090
v 1.874952 -0.241492 1.449713
v 1.880594 -0.100070 1.509280
v 0.710953 -0.241492 1.630382
v 0.811981 -0.041492 1.987478
v 1.051616 -0.241492 1.704106
v 0.788964 -0.100070 1.777951
v 0.860125 -0.126019 1.765016
v 0.919570 -0.100070 1.806216
v 0.872687 -0.241492 1.706969
v 1.051616 -3.841492 1.704106
v 0.811981 -4.041492 1.987478
v 0.710953 -3.841492 1.630382
v 0.919571 -3.982913 1.806216
v 0.860125 -3.956964 1.765016
v 0.788964 -3.982913 1.777951
v 0.872687 -3.841492 1.706969
v 0.000000 -4.041492 -3.769060
v -0.173205 -3.841492 -3.900000
v 0.173205 -3.841492 -3.900000
v -0.122474 -3.982913 -3.855240
v 0.000000 -3.956962 -3.908931
v 0.000000 -3.841492 -3.947829
v 0.122474 -3.982913 -3.855240
v 0.000000 -0.841492 -3.769060
v 0.173205 -1.041492 -3.900000
v -0.173205 -1.041492 -3.900000
v 0.122474 -0.900071 -3.855240
v -0.000000 -0.926022 -3.908931
v -0.000000 -1.041492 -3.947829
v -0.122474 -0.900071 -3.855240
v 3.264102 -4.041492 -1.884530
v 3.290897 -3.841492 -2.100000
v 3.464102 -3.841492 -1.800000
v 3.277499 -3.982913 -2.033686
v 3.385234 -3.956962 -1.954466
v 3.418921 -3.841492 -1.973915
v 3.399974 -3.982913 -1.821554
v 3.264102 -0.841492 -1.884530
v 3.464102 -1.041492 -1.800000
v 3.290897 -1.041492 -2.100000
v 3.399974 -0.900071 -1.821554
v 3.385234 -0.926022 -1.954466
v 3.418921 -1.041492 -1.973915
v 3.277499 -0.900071 -2.033686
v 3.264102 -4.041492 1.851613
v 3.464102 -3.841492 1.800000
v 3.272692 -3.841492 2.057987
v 3.403744 -3.982913 1.813797
v 3.381387 -3.956962 1.938631
v 3.409819 -3.841492 1.959725
v 3.268397 -3.982913 1.996222
v 3.264102 -0.841492 1.851613
v 3.272692 -1.041492 2.057987
v 3.464102 -1.041492 1.800000
v 3.268397 -0.900071 1.996222
v 3.381387 -0.926022 1.938631
v 3.409819 -1.041492 1.959725
v 3.403744 -0.900071 1.813797
v 0.000000 -4.041492 2.840465
v 0.191409 -3.841492 2.991454
v -0.191409 -3.841492 2.991454
v 0.107714 -3.982913 2.955602
v 0.000000 -3.956964 2.988252
v 0.000000 -3.841492 3.015473
v -0.107714 -3.982913 2.955602
v -0.000000 -0.841492 2.840465
v -0.191409 -1.041492 2.991454
v 0.191409 -1.041492 2.991454
v -0.107715 -0.900071 2.955602
v -0.000000 -0.926020 2.988252
v 0.000000 -1.041492 3.015473
v 0.107714 -0.900071 2.955602
v -3.264102 -4.041492 1.851613
v -3.272692 -3.841492 2.057987
v -3.464102 -3.841492 1.800000
v -3.268397 -3.982913 1.996222
v -3.381387 -3.956962 1.938631
v -3.409819 -3.841492 1.959725
v -3.403744 -3.982913 1.813797
v -3.264102 -0.841492 1.851613
v -3.464102 -1.041492 1.800000
v -3.272692 -1.041492 2.057987
v -3.403744 -0.900071 1.813797
v -3.381387 -0.926022 1.938631
v -3.409819 -1.041492 1.959725
v -3.268397 -0.900071 1.996222
v -3.264102 -4.041492 -1.884530
v -3.464102 -3.841492 -1.800000
v -3.290897 -3.841492 -2.100000
v -3.399974 -3.982913 -1.821554
v -3.385234 -3.956962 -1.954466
v -3.418921 -3.841492 -1.973915
v -3.277499 -3.982913 -2.033686
v -3.264102 -0.841492 -1.884530
v -3.290897 -1.041492 -2.100000
v -3.464102 -1.041492 -1.800000
v -3.277499 -0.900071 -2.033686
v -3.385234 -0.926022 -1.954466
v -3.418921 -1.041492 -1.973915
v -3.399974 -0.900071 -1.821554
vn 0.3354 -0.1979 -0.9211
vn 0.3354 0.1979 -0.9211
vn 0.6805 0.2082 -0.7025
vn 0.6805 -0.2082 -0.7025
vn 0.6276 -0.2116 0.7492
vn 0.6276 0.2116 0.7492
vn 0.3832 0.1934 0.9032
vn 0.3832 -0.1934 0.9032
vn -0.3957 -0.1900 0.8985
vn -0.3957 0.1900 0.8985
vn -0.6473 0.1869 0.7390
vn -0.6473 -0.1869 0.7390
vn -0.8846 -0.1827 -0.4292
vn -0.8846 0.1827 -0.4292
vn -0.7084 0.1984 -0.6773
vn -0.7084 -0.1984 -0.6773
vn -0.0925 -0.1939 -0.9766
vn -0.0925 0.1939 -0.9766
vn -0.5392 0.1920 -0.8200
vn -0.5392 -0.1920 -0.8200
vn 0.1075 -0.9760 -0.1893
vn 0.0370 -0.9846 -0.1708
vn -0.0203 -0.9766 -0.2143
vn 0.0757 -0.9757 -0.2054
vn 0.1977 -0.9802 0.0096
vn -0.0014 -0.9591 0.2830
vn -0.2381 -0.9700 0.0498
vn -0.1517 -0.9776 -0.1456
vn -0.0527 -0.9592 -0.2776
vn 0.0757 0.9757 -0.2054
vn -0.0203 0.9766 -0.2143
vn 0.0370 0.9846 -0.1708
vn 0.1075 0.9760 -0.1893
vn -0.0527 0.9592 -0.2776
vn -0.1517 0.9776 -0.1456
vn -0.2381 0.9700 0.0498
vn -0.0014 0.9591 0.2830
vn 0.1977 0.9802 0.0096
vn -0.1729 -0.2290 -0.9579
vn -0.1729 0.2290 -0.9579
vn -0.0000 -0.9587 -0.2843
vn 0.2453 -0.9590 -0.1422
vn 0.2223 -0.9611 0.1637
vn -0.0000 -0.9676 0.2525
vn -0.2223 -0.9611 0.1637
vn -0.2453 -0.9590 -0.1422
vn 0.2013 -0.1920 -0.9605
vn 0.2013 0.1920 -0.9605
vn 0.4865 0.1987 -0.8508
vn 0.4865 -0.1987 -0.8508
vn -0.5840 -0.1940 -0.7882
vn -0.5840 0.1940 -0.7882
vn -0.3906 0.1940 -0.8999
vn -0.3906 -0.1940 -0.8999
vn 0.4223 -0.1805 0.8883
vn 0.4223 0.1805 0.8883
vn 0.2218 0.1772 0.9589
vn 0.2218 -0.1772 0.9589
vn -0.2218 -0.1772 0.9589
vn -0.2218 0.1772 0.9589
vn -0.4223 0.1805 0.8883
vn -0.4223 -0.1805 0.8883
vn -0.9718 -0.1849 0.1466
vn -0.9718 0.1849 0.1466
vn -0.9752 0.1910 -0.1117
vn -0.9752 -0.1910 -0.1117
vn 0.9752 -0.1910 -0.1117
vn 0.9752 0.1910 -0.1117
vn 0.9718 0.1849 0.1466
vn 0.9718 -0.1849 0.1466
vn 0.2453 0.9590 -0.1422
vn -0.0000 0.9587 -0.2843
vn -0.2453 0.9590 -0.1422
vn -0.2223 0.9611 0.1637
vn -0.0000 0.9676 0.2525
vn 0.2223 0.9611 0.1637
vn 0.3906 -0.1940 -0.8999
vn 0.3906 0.1940 -0.8999
vn 0.5840 0.1940 -0.7882
vn 0.5840 -0.1940 -0.7882
vn 0.4939 -0.7522 -0.4361
vn 0.7420 -0.6699 0.0265
vn 0.4587 -0.7542 0.4698
vn 0.9683 -0.2472 0.0346
vn 0.4587 0.7542 0.4698
vn 0.7420 0.6699 0.0265
vn 0.4939 0.7522 -0.4361
vn 0.9683 0.2472 0.0346
vn 0.2550 -0.6932 0.6741
vn -0.0055 -0.5795 0.8150
vn -0.2642 -0.6924 0.6714
vn -0.0067 -0.1784 0.9839
vn -0.2642 0.6924 0.6714
vn -0.0055 0.5795 0.8150
vn 0.2550 0.6932 0.6741
vn -0.0067 0.1784 0.9839
vn -0.4984 -0.7074 0.5012
vn -0.7912 -0.5901 0.1603
vn -0.6561 -0.7055 -0.2682
vn -0.9636 -0.1828 0.1952
vn -0.6561 0.7055 -0.2682
vn -0.7912 0.5901 0.1603
vn -0.4984 0.7074 0.5012
vn -0.9636 0.1828 0.1952
vn 0.1202 -0.6941 -0.7098
vn -0.1516 -0.5830 -0.7982
vn -0.1834 -0.1817 -0.9661
vn -0.3718 -0.6942 -0.6164
vn -0.3718 0.6942 -0.6164
vn -0.1516 0.5830 -0.7982
vn -0.1834 0.1817 -0.9661
vn 0.1202 0.6941 -0.7098
vn 0.5535 0.2290 -0.8007
vn 0.2706 0.8222 -0.5007
vn 0.1470 0.7191 -0.6792
vn 0.2014 0.3051 -0.9308
vn -0.0393 0.8222 -0.5678
vn -0.0393 -0.8222 -0.5678
vn 0.1470 -0.7191 -0.6792
vn 0.2014 -0.3051 -0.9308
vn 0.2706 -0.8222 -0.5007
vn 0.5535 -0.2290 -0.8007
vn -0.2606 -0.6933 -0.6719
vn -0.0000 -0.5791 -0.8152
vn 0.2606 -0.6933 -0.6719
vn -0.0000 -0.1781 -0.9840
vn 0.2606 0.6933 -0.6719
vn -0.0000 0.5791 -0.8152
vn -0.2606 0.6933 -0.6719
vn -0.0000 0.1781 -0.9840
vn 0.4516 -0.6933 -0.5616
vn 0.7060 -0.5791 -0.4076
vn 0.7128 -0.6926 -0.1107
vn 0.8522 -0.1781 -0.4920
vn 0.7128 0.6926 -0.1107
vn 0.7060 0.5791 -0.4076
vn 0.4516 0.6933 -0.5616
vn 0.8522 0.1781 -0.4920
vn 0.7107 -0.6889 0.1423
vn 0.6611 -0.5678 0.4905
vn 0.3432 -0.6876 0.6399
vn 0.7919 -0.1666 0.5875
vn 0.3432 0.6876 0.6399
vn 0.6611 0.5678 0.4905
vn 0.7107 0.6889 0.1423
vn 0.7919 0.1666 0.5875
vn 0.1424 -0.6835 0.7159
vn -0.0000 -0.5542 0.8324
vn -0.1424 -0.6835 0.7159
vn -0.0000 -0.1430 0.9897
vn -0.1424 0.6835 0.7159
vn -0.0000 0.5542 0.8324
vn 0.1424 0.6835 0.7159
vn -0.0000 0.1430 0.9897
vn -0.3432 -0.6876 0.6399
vn -0.6611 -0.5678 0.4905
vn -0.7107 -0.6889 0.1423
vn -0.7919 -0.1666 0.5875
vn -0.7107 0.6889 0.1423
vn -0.6611 0.5678 0.4905
vn -0.3432 0.6876 0.6399
vn -0.7919 0.1666 0.5875
vn -0.7128 -0.6926 -0.1107
vn -0.7060 -0.5791 -0.4076
vn -0.4516 -0.6933 -0.5616
vn -0.8522 -0.1781 -0.4920
vn -0.4516 0.6933 -0.5616
vn -0.7060 0.5791 -0.4076
vn -0.7128 0.6926 -0.1107
vn -0.8522 0.1781 -0.4920
vn 0.2494 -0.6881 -0.6815
vn -0.0684 -0.6883 -0.7222
vn 0.3585 0.6906 -0.6281
vn 0.2494 0.6881 -0.6815
vn -0.5181 -0.6967 -0.4962
vn -0.5181 0.6967 -0.4962
vn 0.3585 -0.6906 -0.6281
vn -0.0684 0.6883 -0.7222
vt 0.744419 0.450101
vt -0.000000 0.525000
vt 1.000000 0.525000
vt 0.000504 0.500000
vt 0.749371 0.489637
vt 0.999556 0.500000
vt 0.750554 0.489680
vt 0.244419 0.450101
vt -0.000000 0.975000
vt 1.000000 0.975000
vt 0.999556 1.000000
vt 0.250554 0.489680
vt 0.000504 1.000000
vt 0.249371 0.489637
vt 0.940437 0.294365
vt 0.833333 0.525000
vt 0.834372 0.500000
vt 0.956551 0.370748
vt 0.829992 0.500000
vt 0.957846 0.365189
vt 0.440438 0.294365
vt 0.833333 0.975000
vt 0.829992 1.000000
vt 0.457846 0.365189
vt 0.834372 1.000000
vt 0.456551 0.370748
vt 0.944363 0.191493
vt 0.713766 0.525000
vt 0.658597 0.525000
vt 0.724182 0.500000
vt 0.957846 0.212821
vt 0.957846 0.174188
vt 0.666667 0.510566
vt 0.661409 0.500000
vt 0.666667 0.525000
vt 0.656813 0.500000
vt 0.945558 0.122905
vt 0.444363 0.191493
vt 0.658597 0.975000
vt 0.713766 0.975000
vt 0.656813 1.000000
vt 0.445558 0.122905
vt 0.451290 0.126215
vt 0.666667 0.989434
vt 0.697353 1.000000
vt 0.666667 0.975000
vt 0.724182 1.000000
vt 0.457846 0.212821
vt 0.750043 0.034871
vt 0.508069 0.525000
vt 0.491869 0.525000
vt 0.507194 0.500000
vt 0.758972 0.015180
vt 0.752276 0.011314
vt 0.500000 0.510566
vt 0.498161 0.500000
vt 0.500000 0.525000
vt 0.492751 0.500000
vt 0.740960 0.015219
vt 0.250043 0.034871
vt 0.491869 0.975000
vt 0.508069 0.975000
vt 0.492751 1.000000
vt 0.240960 0.015219
vt 0.247706 0.011324
vt 0.500000 0.989434
vt 0.501825 1.000000
vt 0.500000 0.975000
vt 0.507194 1.000000
vt 0.258972 0.015180
vt 0.554722 0.176204
vt 0.341464 0.525000
vt 0.289593 0.525000
vt 0.341767 0.500000
vt 0.552671 0.123928
vt 0.546946 0.127233
vt 0.333333 0.510566
vt 0.312662 0.500000
vt 0.333333 0.525000
vt 0.287965 0.500000
vt 0.542154 0.195330
vt 0.054722 0.176204
vt 0.289593 0.975000
vt 0.341464 0.975000
vt 0.287965 1.000000
vt 0.042154 0.195330
vt 0.042154 0.159766
vt 0.333333 0.989434
vt 0.337176 1.000000
vt 0.333333 0.975000
vt 0.341767 1.000000
vt 0.052671 0.123928
vt 0.559820 0.315203
vt 0.166667 0.525000
vt 0.168209 0.500000
vt 0.542154 0.367779
vt 0.166273 0.500000
vt 0.542644 0.370283
vt 0.059820 0.315203
vt 0.166667 0.975000
vt 0.168209 1.000000
vt 0.042154 0.367779
vt 0.166273 1.000000
vt 0.042644 0.370283
vt 0.075117 0.525000
vt 0.645095 0.410484
vt 0.094485 0.525000
vt 0.076060 0.500000
vt 0.655148 0.435237
vt 0.081583 0.500000
vt 0.643115 0.428290
vt 0.083333 0.510566
vt 0.093205 0.500000
vt 0.633766 0.422892
vt 0.083333 0.525000
vt 0.094485 0.975000
vt 0.145095 0.410484
vt 0.075117 0.975000
vt 0.093205 1.000000
vt 0.133766 0.422892
vt 0.085709 1.000000
vt 0.148260 0.431260
vt 0.083333 0.989434
vt 0.076060 1.000000
vt 0.155148 0.435237
vt 0.083333 0.975000
vt 0.858850 0.379506
vt 0.916667 0.525000
vt 0.915774 0.500000
vt 0.855036 0.429357
vt 0.917145 0.500000
vt 0.853326 0.430345
vt 0.358850 0.379505
vt 0.916667 0.975000
vt 0.915774 1.000000
vt 0.355036 0.429357
vt 0.917145 1.000000
vt 0.353326 0.430345
vt 0.965576 0.975000
vt 0.298156 0.361285
vt 0.950485 0.975000
vt 0.959916 1.000000
vt 0.299988 0.461139
vt 0.958333 1.000000
vt 0.301962 0.460000
vt 0.958333 0.989434
vt 0.956618 1.000000
vt 0.304100 0.458765
vt 0.958333 0.975000
vt 0.950484 0.525000
vt 0.798156 0.361285
vt 0.965576 0.525000
vt 0.956619 0.500000
vt 0.804100 0.458765
vt 0.958333 0.500000
vt 0.801962 0.460000
vt 0.958333 0.510566
vt 0.959916 0.500000
vt 0.799988 0.461139
vt 0.958333 0.525000
vt 0.750000 0.475842
vt 0.008333 0.531250
vt 0.991667 0.531250
vt 0.007435 0.500000
vt 0.740728 0.484647
vt 0.747634 0.488634
vt -0.000000 0.513208
vt 0.998103 0.500000
vt -0.000000 0.531250
vt 1.000000 0.531250
vt 0.992565 0.500000
vt 0.759272 0.484647
vt 0.250000 0.475842
vt 0.991667 0.968750
vt 0.008333 0.968750
vt 0.992565 1.000000
vt 0.259272 0.484647
vt 0.252366 0.488634
vt 1.000000 0.986792
vt 0.001897 1.000000
vt -0.000000 0.968750
vt 1.000000 0.968750
vt 0.007435 1.000000
vt 0.240728 0.484647
vt 0.945846 0.362718
vt 0.841667 0.531250
vt 0.825000 0.531250
vt 0.840769 0.500000
vt 0.948574 0.375353
vt 0.955480 0.371366
vt 0.833333 0.513208
vt 0.831436 0.500000
vt 0.833333 0.531250
vt 0.825898 0.500000
vt 0.957846 0.359293
vt 0.445846 0.362718
vt 0.825000 0.968750
vt 0.841667 0.968750
vt 0.825898 1.000000
vt 0.457846 0.359293
vt 0.457846 0.367268
vt 0.833333 0.986792
vt 0.835231 1.000000
vt 0.833333 0.968750
vt 0.840769 1.000000
vt 0.448574 0.375353
vt 0.945846 0.136870
vt 0.675000 0.531250
vt 0.657457 0.531250
vt 0.674425 0.500000
vt 0.957846 0.141172
vt 0.957846 0.133682
vt 0.666667 0.513208
vt 0.663841 0.500000
vt 0.666667 0.531250
vt 0.658093 0.500000
vt 0.947154 0.123827
vt 0.445846 0.136870
vt 0.657457 0.968750
vt 0.675000 0.968750
vt 0.658093 1.000000
vt 0.447154 0.123827
vt 0.454322 0.127965
vt 0.666667 0.986792
vt 0.669224 1.000000
vt 0.666667 0.968750
vt 0.674425 1.000000
vt 0.457846 0.141172
vt 0.750000 0.027845
vt 0.509209 0.531250
vt 0.490791 0.531250
vt 0.505999 0.500000
vt 0.757482 0.014320
vt 0.751019 0.010588
vt 0.500000 0.513207
vt 0.499183 0.500000
vt 0.500000 0.531250
vt 0.494000 0.500000
vt 0.742518 0.014320
vt 0.250000 0.027845
vt 0.490791 0.968750
vt 0.509209 0.968750
vt 0.494000 1.000000
vt 0.242518 0.014320
vt 0.248981 0.010588
vt 0.500000 0.986793
vt 0.500817 1.000000
vt 0.500000 0.968750
vt 0.505999 1.000000
vt 0.257482 0.014320
vt 0.554154 0.136870
vt 0.342542 0.531250
vt 0.325000 0.531250
vt 0.341907 0.500000
vt 0.552846 0.123827
vt 0.545678 0.127965
vt 0.333333 0.513208
vt 0.330776 0.500000
vt 0.333333 0.531250
vt 0.325575 0.500000
vt 0.542154 0.141172
vt 0.054154 0.136870
vt 0.325000 0.968750
vt 0.342542 0.968750
vt 0.325575 1.000000
vt 0.042154 0.141172
vt 0.042154 0.133682
vt 0.333333 0.986792
vt 0.336159 1.000000
vt 0.333333 0.968750
vt 0.341907 1.000000
vt 0.052846 0.123827
vt 0.554154 0.362718
vt 0.175000 0.531250
vt 0.158333 0.531250
vt 0.174102 0.500000
vt 0.542154 0.359293
vt 0.542154 0.367268
vt 0.166667 0.513208
vt 0.164769 0.500000
vt 0.166667 0.531250
vt 0.159231 0.500000
vt 0.551426 0.375353
vt 0.054154 0.362718
vt 0.158333 0.968750
vt 0.175000 0.968750
vt 0.159231 1.000000
vt 0.051426 0.375353
vt 0.044520 0.371366
vt 0.166667 0.986792
vt 0.168564 1.000000
vt 0.166667 0.968750
vt 0.174102 1.000000
vt 0.042154 0.359293
s 1
usemtl grass
f 8/16/1 11/22/2 22/40/3 14/28/4
f 15/29/5 21/39/6 36/62/7 28/50/8
f 29/51/9 35/61/10 50/84/11 42/72/12
f 43/73/13 49/83/14 59/100/15 56/94/16
f 76/128/17 79/134/18 11/22/2 8/16/1
f 56/94/16 59/100/15 68/116/19 63/107/20
f 1/1/21 89/151/22 75/127/23 7/15/24 13/27/25 27/49/26 41/71/27 55/93/28 62/106/29
f 10/21/30 78/133/31 82/140/32 4/8/33 69/117/34 58/99/35 48/82/36 34/60/37 20/38/38
f 88/150/39 83/141/40 79/134/18 76/128/17
f 61/105/47 70/118/48 5/9/49 2/2/50
f 13/27/25 16/31/81 17/32/82 19/37/83
f 14/28/4 18/35/84 17/33/82 16/30/81
f 15/29/5 19/36/83 17/34/82 18/35/84
f 20/38/38 23/42/85 24/43/86 26/48/87
f 21/39/6 25/46/88 24/44/86 23/41/85
f 22/40/3 26/47/87 24/45/86 25/46/88
f 27/49/26 30/53/89 31/54/90 33/59/91
f 28/50/8 32/57/92 31/55/90 30/52/89
f 29/51/9 33/58/91 31/56/90 32/57/92
f 34/60/37 37/64/93 38/65/94 40/70/95
f 35/61/10 39/68/96 38/66/94 37/63/93
f 36/62/7 40/69/95 38/67/94 39/68/96
f 41/71/27 44/75/97 45/76/98 47/81/99
f 42/72/12 46/79/100 45/77/98 44/74/97
f 43/73/13 47/80/99 45/78/98 46/79/100
f 48/82/36 51/86/101 52/87/102 54/92/103
f 49/83/14 53/90/104 52/88/102 51/85/101
f 50/84/11 54/91/103 52/89/102 53/90/104
f 61/105/47 64/108/105 65/110/106 67/115/107
f 62/106/29 66/114/108 65/111/106 64/109/105
f 63/107/20 67/115/107 65/112/106 66/113/108
f 68/116/19 71/119/109 72/121/110 74/126/111
f 69/117/34 73/125/112 72/122/110 71/120/109
f 70/118/48 74/126/111 72/123/110 73/124/112
f 81/139/113 84/142/114 85/144/115 87/149/116
f 82/140/32 86/148/117 85/145/115 84/143/114
f 83/141/40 87/149/116 85/146/115 86/147/117
f 88/150/39 91/153/118 92/155/119 94/160/120
f 89/151/22 93/159/121 92/156/119 91/154/118
f 90/152/122 94/160/120 92/157/119 93/158/121
f 76/128/17 8/16/1 9/17/171 77/129/172
f 77/130/172 9/18/171 7/15/24 75/127/23
f 81/139/113 5/10/49 6/11/173 84/142/114
f 84/143/114 6/12/173 4/8/33 82/140/32
f 8/16/1 14/28/4 16/30/81 9/19/171
f 9/20/171 16/31/81 13/27/25 7/15/24
f 22/40/3 11/22/2 12/23/174 26/47/87
f 26/48/87 12/24/174 10/21/30 20/38/38
f 21/39/6 15/29/5 18/35/84 25/46/88
f 25/46/88 18/35/84 14/28/4 22/40/3
f 15/29/5 28/50/8 30/52/89 19/36/83
f 19/37/83 30/53/89 27/49/26 13/27/25
f 36/62/7 21/39/6 23/41/85 40/69/95
f 40/70/95 23/42/85 20/38/38 34/60/37
f 35/61/10 29/51/9 32/57/92 39/68/96
f 39/68/96 32/57/92 28/50/8 36/62/7
f 29/51/9 42/72/12 44/74/97 33/58/91
f 33/59/91 44/75/97 41/71/27 27/49/26
f 50/84/11 35/61/10 37/63/93 54/91/103
f 54/92/103 37/64/93 34/60/37 48/82/36
f 49/83/14 43/73/13 46/79/100 53/90/104
f 53/90/104 46/79/100 42/72/12 50/84/11
f 43/73/13 56/94/16 57/95/175 47/80/99
f 47/81/99 57/96/175 55/93/28 41/71/27
f 59/100/15 49/83/14 51/85/101 60/101/176
f 60/102/176 51/86/101 48/82/36 58/99/35
f 61/105/47 2/2/50 3/4/177 64/108/105
f 64/109/105 3/5/177 1/1/21 62/106/29
f 68/116/19 59/100/15 60/103/176 71/119/109
f 71/120/109 60/104/176 58/99/35 69/117/34
f 56/94/16 63/107/20 66/113/108 57/97/175
f 57/98/175 66/114/108 62/106/29 55/93/28
f 5/9/49 70/118/48 73/124/112 6/13/173
f 6/14/173 73/125/112 69/117/34 4/8/33
f 70/118/48 61/105/47 67/115/107 74/126/111
f 74/126/111 67/115/107 63/107/20 68/116/19
f 88/150/39 76/128/17 77/131/172 91/153/118
f 91/154/118 77/132/172 75/127/23 89/151/22
f 11/22/2 79/134/18 80/135/178 12/25/174
f 12/26/174 80/136/178 78/133/31 10/21/30
f 79/134/18 83/141/40 86/147/117 80/137/178
f 80/138/178 86/148/117 82/140/32 78/133/31
f 2/3/50 90/152/122 93/158/121 3/6/177
f 3/7/177 93/159/121 89/151/22 1/1/21
f 83/141/40 88/150/39 94/160/120 87/149/116
f 87/149/116 94/160/120 90/152/122 81/139/113
f 2/3/50 5/10/49 81/139/113 90/152/122
usemtl water.001
f 95/161/41 109/185/42 123/207/43 137/229/44 151/251/45 165/273/46
f 167/275/51 173/285/52 104/175/53 96/162/54
f 125/209/55 131/219/56 146/242/57 138/230/58
f 139/231/59 145/241/60 160/264/61 152/252/62
f 153/253/63 159/263/64 174/286/65 166/274/66
f 111/187/67 117/197/68 132/220/69 124/208/70
f 116/196/71 102/173/72 172/284/73 158/262/74 144/240/75 130/218/76
f 97/163/77 103/174/78 118/198/79 110/186/80
f 95/161/41 98/165/123 99/166/124 101/172/125
f 96/162/54 100/169/126 99/167/124 98/164/123
f 97/163/77 101/171/125 99/168/124 100/170/126
f 102/173/72 105/177/127 106/178/128 108/184/129
f 103/174/78 107/182/130 106/179/128 105/176/127
f 104/175/53 108/183/129 106/180/128 107/181/130
f 109/185/42 112/189/131 113/190/132 115/195/133
f 110/186/80 114/193/134 113/191/132 112/188/131
f 111/187/67 115/194/133 113/192/132 114/193/134
f 116/196/71 119/200/135 120/201/136 122/206/137
f 117/197/68 121/204/138 120/202/136 119/199/135
f 118/198/79 122/205/137 120/203/136 121/204/138
f 123/207/43 126/211/139 127/212/140 129/217/141
f 124/208/70 128/215/142 127/213/140 126/210/139
f 125/209/55 129/216/141 127/214/140 128/215/142
f 130/218/76 133/222/143 134/223/144 136/228/145
f 131/219/56 135/226/146 134/224/144 133/221/143
f 132/220/69 136/227/145 134/225/144 135/226/146
f 137/229/44 140/233/147 141/234/148 143/239/149
f 138/230/58 142/237/150 141/235/148 140/232/147
f 139/231/59 143/238/149 141/236/148 142/237/150
f 144/240/75 147/244/151 148/245/152 150/250/153
f 145/241/60 149/248/154 148/246/152 147/243/151
f 146/242/57 150/249/153 148/247/152 149/248/154
f 151/251/45 154/255/155 155/256/156 157/261/157
f 152/252/62 156/259/158 155/257/156 154/254/155
f 153/253/63 157/260/157 155/258/156 156/259/158
f 158/262/74 161/266/159 162/267/160 164/272/161
f 159/263/64 163/270/162 162/268/160 161/265/159
f 160/264/61 164/271/161 162/269/160 163/270/162
f 165/273/46 168/277/163 169/278/164 171/283/165
f 166/274/66 170/281/166 169/279/164 168/276/163
f 167/275/51 171/282/165 169/280/164 170/281/166
f 172/284/73 175/288/167 176/289/168 178/294/169
f 173/285/52 177/292/170 176/290/168 175/287/167
f 174/286/65 178/293/169 176/291/168 177/292/170
f 97/163/77 110/186/80 112/188/131 101/171/125
f 101/172/125 112/189/131 109/185/42 95/161/41
f 118/198/79 103/174/78 105/176/127 122/205/137
f 122/206/137 105/177/127 102/173/72 116/196/71
f 96/162/54 104/175/53 107/181/130 100/169/126
f 100/170/126 107/182/130 103/174/78 97/163/77
f 117/197/68 111/187/67 114/193/134 121/204/138
f 121/204/138 114/193/134 110/186/80 118/198/79
f 111/187/67 124/208/70 126/210/139 115/194/133
f 115/195/133 126/211/139 123/207/43 109/185/42
f 132/220/69 117/197/68 119/199/135 136/227/145
f 136/228/145 119/200/135 116/196/71 130/218/76
f 131/219/56 125/209/55 128/215/142 135/226/146
f 135/226/146 128/215/142 124/208/70 132/220/69
f 125/209/55 138/230/58 140/232/147 129/216/141
f 129/217/141 140/233/147 137/229/44 123/207/43
f 146/242/57 131/219/56 133/221/143 150/249/153
f 150/250/153 133/222/143 130/218/76 144/240/75
f 145/241/60 139/231/59 142/237/150 149/248/154
f 149/248/154 142/237/150 138/230/58 146/242/57
f 139/231/59 152/252/62 154/254/155 143/238/149
f 143/239/149 154/255/155 151/251/45 137/229/44
f 160/264/61 145/241/60 147/243/151 164/271/161
f 164/272/161 147/244/151 144/240/75 158/262/74
f 159/263/64 153/253/63 156/259/158 163/270/162
f 163/270/162 156/259/158 152/252/62 160/264/61
f 153/253/63 166/274/66 168/276/163 157/260/157
f 157/261/157 168/277/163 165/273/46 151/251/45
f 174/286/65 159/263/64 161/265/159 178/293/169
f 178/294/169 161/266/159 158/262/74 172/284/73
f 173/285/52 167/275/51 170/281/166 177/292/170
f 177/292/170 170/281/166 166/274/66 174/286/65
f 167/275/51 96/162/54 98/164/123 171/282/165
f 171/283/165 98/165/123 95/161/41 165/273/46
f 104/175/53 173/285/52 175/287/167 108/183/129
f 108/184/129 175/288/167 172/284/73 102/173/72
