# Blender 3.3.1
# www.blender.org
mtllib grass_border1.mtl
o grass_border1
v -0.047465 -3.841492 -3.805714
v -0.305374 -4.041492 -3.592752
v -0.173205 -3.841492 -3.900000
v -0.140547 -3.982913 -3.719944
v -0.111166 -3.956962 -3.851748
v -0.229459 -3.982913 -3.786614
v -0.047090 -3.841492 -3.937201
v -0.305374 -0.041492 -3.592752
v -0.047465 -0.241492 -3.805714
v -0.173205 -0.241492 -3.900000
v -0.140547 -0.100070 -3.719944
v -0.111166 -0.126022 -3.851748
v -0.047090 -0.241492 -3.937201
v -0.229459 -0.100070 -3.786614
v 0.591591 -4.041492 0.357667
v 0.725682 -3.841492 0.200233
v 0.686408 -3.982913 0.246344
v 0.591591 -0.041492 0.357667
v 0.725682 -0.241492 0.200233
v 0.686408 -0.100070 0.246344
v 3.152702 -4.041492 1.948846
v 3.331989 -3.841492 1.849846
v 3.290897 -3.841492 2.100000
v 3.278218 -3.982913 1.878635
v 3.333774 -3.956962 1.978591
v 3.375936 -3.841492 1.985517
v 3.249161 -3.982913 2.055521
v 3.331989 -0.241492 1.849846
v 3.152702 -0.041492 1.948846
v 3.290897 -0.241492 2.100000
v 3.278218 -0.100070 1.878635
v 3.333774 -0.126022 1.978591
v 3.249161 -0.100070 2.055521
v 3.375936 -0.241492 1.985517
v 0.000000 -4.041492 3.769060
v 0.173205 -3.841492 3.900000
v -0.173205 -3.841492 3.900000
v 0.122474 -3.982913 3.855240
v -0.000000 -3.956962 3.908931
v -0.000000 -3.841492 3.947829
v -0.122474 -3.982913 3.855240
v 0.000000 -0.041492 3.769060
v -0.173205 -0.241492 3.900000
v 0.173205 -0.241492 3.900000
v -0.122474 -0.100070 3.855240
v 0.000000 -0.126022 3.908931
v 0.000000 -0.241492 3.947829
v 0.122474 -0.100070 3.855240
v -3.264102 -4.041492 1.884530
v -3.290897 -3.841492 2.100000
v -3.464102 -3.841492 1.800000
v -3.277499 -3.982913 2.033686
v -3.385234 -3.956962 1.954466
v -3.418921 -3.841492 1.973914
v -3.399974 -3.982913 1.821554
v -3.264102 -0.041492 1.884530
v -3.464102 -0.241492 1.800000
v -3.290897 -0.241492 2.100000
v -3.399974 -0.100070 1.821554
v -3.385234 -0.126022 1.954466
v -3.418921 -0.241492 1.973914
v -3.277499 -0.100070 2.033686
v -3.264102 -4.041492 -1.884530
v -3.464102 -3.841492 -1.800000
v -3.290897 -3.841492 -2.100000
v -3.399974 -3.982913 -1.821554
v -3.385234 -3.956962 -1.954466
v -3.418921 -3.841492 -1.973914
v -3.277499 -3.982913 -2.033686
v -3.264102 -0.041492 -1.884530
v -3.290897 -0.241492 -2.100000
v -3.464102 -0.241492 -1.800000
v -3.277499 -0.100070 -2.033686
v -3.385234 -0.126022 -1.954466
v -3.418921 -0.241492 -1.973914
v -3.399974 -0.100070 -1.821554
v -0.456800 -3.841492 -1.498307
v -0.786775 -4.041492 -1.622244
v -0.523606 -3.841492 -1.856734
v -0.587793 -3.982913 -1.583942
v -0.576335 -3.956964 -1.661467
v -0.614952 -3.982913 -1.729659
v -0.523699 -3.841492 -1.671278
v -0.523606 -0.241492 -1.856734
v -0.786775 -0.041492 -1.622244
v -0.456800 -0.241492 -1.498307
v -0.614952 -0.100070 -1.729659
v -0.576335 -0.126019 -1.661467
v -0.587793 -0.100070 -1.583942
v -0.523699 -0.241492 -1.671277
v 2.604739 -4.041492 1.326051
v 2.728053 -3.841492 1.163433
v 2.691935 -3.982913 1.211063
v 2.604739 -0.041492 1.326051
v 2.728053 -0.241492 1.163433
v 2.691935 -0.100070 1.211063
vn 0.6343 -0.2077 -0.7447
vn 0.6343 0.2077 -0.7447
vn 0.5927 0.1945 -0.7816
vn 0.5927 -0.1945 -0.7816
vn 0.6457 -0.1907 0.7394
vn 0.6457 0.1907 0.7394
vn 0.3909 0.1902 0.9006
vn 0.3909 -0.1902 0.9006
vn -0.3906 -0.1940 0.8999
vn -0.3906 0.1940 0.8999
vn -0.5840 0.1940 0.7882
vn -0.5840 -0.1940 0.7882
vn -0.9746 -0.1940 0.1117
vn -0.9746 0.1940 0.1117
vn -0.9746 0.1940 -0.1117
vn -0.9746 -0.1940 -0.1117
vn 0.8539 -0.2216 -0.4709
vn 0.8539 0.2216 -0.4709
vn 0.0897 -0.9881 -0.1248
vn 0.1822 -0.9827 -0.0332
vn 0.1234 -0.9817 -0.1448
vn 0.1301 -0.9766 -0.1714
vn 0.2303 -0.9723 0.0395
vn -0.0006 -0.9590 0.2833
vn -0.2462 -0.9587 0.1421
vn -0.2469 -0.9584 -0.1434
vn 0.1234 0.9817 -0.1448
vn 0.1822 0.9827 -0.0332
vn 0.0897 0.9881 -0.1248
vn -0.2469 0.9584 -0.1434
vn -0.2462 0.9587 0.1421
vn -0.0006 0.9590 0.2833
vn 0.2303 0.9723 0.0395
vn 0.1301 0.9766 -0.1714
vn -0.5835 -0.1987 -0.7874
vn -0.5835 0.1987 -0.7874
vn -0.3809 0.2417 -0.8925
vn -0.3809 -0.2417 -0.8925
vn 0.8489 0.1867 -0.4944
vn 0.8489 -0.1867 -0.4944
vn 0.9640 -0.2394 0.1154
vn 0.6008 -0.7993 0.0129
vn 0.3716 -0.7850 -0.4956
vn 0.5664 -0.3297 -0.7553
vn -0.1803 -0.8016 -0.5701
vn 0.6008 0.7993 0.0129
vn 0.3716 0.7850 -0.4956
vn -0.1803 0.8016 -0.5701
vn 0.9640 0.2394 0.1154
vn 0.5664 0.3297 -0.7553
vn 0.6271 -0.7140 -0.3114
vn 0.7872 -0.6031 0.1293
vn 0.4929 -0.7160 0.4944
vn 0.9681 -0.1935 0.1590
vn 0.6271 0.7140 -0.3114
vn 0.7872 0.6031 0.1293
vn 0.9681 0.1935 0.1590
vn 0.4929 0.7160 0.4944
vn 0.2606 -0.6923 0.6729
vn -0.0000 -0.5791 0.8152
vn -0.2606 -0.6933 0.6719
vn -0.0000 -0.1781 0.9840
vn -0.2606 0.6933 0.6719
vn -0.0000 0.5791 0.8152
vn 0.2606 0.6923 0.6729
vn -0.0000 0.1781 0.9840
vn -0.4516 -0.6933 0.5616
vn -0.7060 -0.5791 0.4076
vn -0.7122 -0.6933 0.1103
vn -0.8522 -0.1781 0.4920
vn -0.7122 0.6933 0.1103
vn -0.7060 0.5791 0.4076
vn -0.4516 0.6933 0.5616
vn -0.8522 0.1781 0.4920
vn -0.7122 -0.6933 -0.1103
vn -0.7060 -0.5791 -0.4076
vn -0.4506 -0.6944 -0.5610
vn -0.8522 -0.1781 -0.4920
vn -0.4506 0.6944 -0.5610
vn -0.7060 0.5791 -0.4076
vn -0.7122 0.6933 -0.1103
vn -0.8522 0.1781 -0.4920
vn 0.5473 -0.8021 -0.2388
vn 0.7015 -0.7005 -0.1308
vn 0.9442 -0.2783 -0.1760
vn 0.5977 -0.8013 0.0255
vn 0.9634 -0.2347 0.1297
vn 0.9634 0.2347 0.1297
vn 0.5977 0.8013 0.0255
vn 0.7015 0.7005 -0.1308
vn 0.9442 0.2783 -0.1760
vn 0.5473 0.8021 -0.2388
vn 0.4305 -0.7478 -0.5054
vn 0.4381 -0.6889 -0.5775
vn 0.4305 0.7478 -0.5054
vn 0.4381 0.6889 -0.5775
vt 0.993074 0.525000
vt 0.744331 0.472674
vt 0.008333 0.525000
vt 0.989423 0.500000
vt 0.763190 0.482385
vt 0.994099 0.500000
vt 0.741146 0.484888
vt -0.000000 0.510566
vt 0.012725 0.500000
vt 0.734130 0.480838
vt -0.000000 0.525000
vt 1.000000 0.525000
vt 0.244331 0.472674
vt 0.993074 0.975000
vt 0.008333 0.975000
vt 0.989423 1.000000
vt 0.263190 0.482385
vt 0.257359 0.485751
vt 1.000000 0.989434
vt 0.007100 1.000000
vt -0.000000 0.975000
vt 1.000000 0.975000
vt 0.012725 1.000000
vt 0.234130 0.480838
vt 0.923092 0.339692
vt 0.833333 0.525000
vt 0.833333 0.500000
vt 0.957846 0.370000
vt 0.423092 0.339692
vt 0.833333 0.975000
vt 0.833333 1.000000
vt 0.457846 0.370000
vt 0.945485 0.143035
vt 0.681624 0.525000
vt 0.658333 0.525000
vt 0.682664 0.500000
vt 0.957846 0.153036
vt 0.957846 0.141002
vt 0.666667 0.510566
vt 0.662410 0.500000
vt 0.666667 0.525000
vt 0.657754 0.500000
vt 0.946731 0.123583
vt 0.681624 0.975000
vt 0.445485 0.143035
vt 0.658333 0.975000
vt 0.682664 1.000000
vt 0.457846 0.153036
vt 0.674307 1.000000
vt 0.452538 0.126935
vt 0.666667 0.989434
vt 0.657754 1.000000
vt 0.446731 0.123583
vt 0.666667 0.975000
vt 0.751876 0.025597
vt 0.508333 0.525000
vt 0.491667 0.525000
vt 0.507435 0.500000
vt 0.759272 0.015353
vt 0.752366 0.011366
vt 0.500000 0.510566
vt 0.498103 0.500000
vt 0.500000 0.525000
vt 0.492565 0.500000
vt 0.740728 0.015353
vt 0.251876 0.025597
vt 0.491667 0.975000
vt 0.508333 0.975000
vt 0.492565 1.000000
vt 0.240728 0.015353
vt 0.247634 0.011366
vt 0.500000 0.989434
vt 0.501897 1.000000
vt 0.500000 0.975000
vt 0.507435 1.000000
vt 0.259272 0.015353
vt 0.555935 0.138285
vt 0.341667 0.525000
vt 0.325000 0.525000
vt 0.340768 0.500000
vt 0.551426 0.124647
vt 0.544520 0.128634
vt 0.333333 0.510566
vt 0.331436 0.500000
vt 0.333333 0.525000
vt 0.325898 0.500000
vt 0.542154 0.140707
vt 0.055935 0.138285
vt 0.325000 0.975000
vt 0.341667 0.975000
vt 0.325898 1.000000
vt 0.042154 0.140707
vt 0.042154 0.132732
vt 0.333333 0.989434
vt 0.335230 1.000000
vt 0.333333 0.975000
vt 0.340768 1.000000
vt 0.051426 0.124647
vt 0.556416 0.364498
vt 0.175000 0.525000
vt 0.158333 0.525000
vt 0.174102 0.500000
vt 0.542154 0.359293
vt 0.542154 0.367268
vt 0.166667 0.510566
vt 0.164769 0.500000
vt 0.166667 0.525000
vt 0.159231 0.500000
vt 0.551426 0.375353
vt 0.056416 0.364498
vt 0.158333 0.975000
vt 0.175000 0.975000
vt 0.159231 1.000000
vt 0.051426 0.375353
vt 0.044520 0.371366
vt 0.166667 0.989434
vt 0.168564 1.000000
vt 0.166667 0.975000
vt 0.174102 1.000000
vt 0.042154 0.359293
vt 0.909323 0.525000
vt 0.807982 0.409322
vt 0.923593 0.525000
vt 0.914652 0.500000
vt 0.856436 0.428549
vt 0.916667 0.500000
vt 0.853923 0.430000
vt 0.916667 0.510566
vt 0.918567 0.500000
vt 0.851553 0.431368
vt 0.916667 0.525000
vt 0.923593 0.975000
vt 0.307982 0.409322
vt 0.909323 0.975000
vt 0.918567 1.000000
vt 0.351553 0.431368
vt 0.916667 1.000000
vt 0.353923 0.430000
vt 0.916667 0.989434
vt 0.914652 1.000000
vt 0.356436 0.428549
vt 0.916667 0.975000
vt 0.945639 0.228949
vt 0.750000 0.525000
vt 0.749110 0.500000
vt 0.957846 0.248718
vt 0.750446 0.500000
vt 0.957846 0.250643
vt 0.445639 0.228949
vt 0.750000 0.975000
vt 0.750446 1.000000
vt 0.457846 0.250643
vt 0.749110 1.000000
vt 0.457846 0.248718
s 1
usemtl grass
f 16/26/1 19/30/2 95/150/3 92/144/4
f 23/35/5 30/46/6 44/68/7 36/56/8
f 37/57/9 43/67/10 58/90/11 50/78/12
f 51/79/13 57/89/14 72/112/15 64/100/16
f 77/121/17 86/134/18 19/30/2 16/26/1
f 2/2/19 78/122/20 15/25/21 91/143/22 21/33/23 35/55/24 49/77/25 63/99/26
f 18/29/27 85/133/28 8/13/29 70/110/30 56/88/31 42/66/32 29/45/33 94/149/34
f 65/101/35 71/111/36 10/15/37 3/3/38
f 92/144/4 95/150/3 28/44/39 22/34/40
f 1/1/41 4/4/42 5/6/43 7/12/44
f 2/2/19 6/10/45 5/7/43 4/5/42
f 3/3/38 7/11/44 5/8/43 6/9/45
f 8/13/29 11/17/46 12/18/47 14/24/48
f 9/14/49 13/22/50 12/19/47 11/16/46
f 10/15/37 14/23/48 12/20/47 13/21/50
f 21/33/23 24/37/51 25/38/52 27/43/53
f 22/34/40 26/41/54 25/39/52 24/36/51
f 23/35/5 27/42/53 25/40/52 26/41/54
f 28/44/39 31/47/55 32/49/56 34/54/57
f 29/45/33 33/53/58 32/50/56 31/48/55
f 30/46/6 34/54/57 32/51/56 33/52/58
f 35/55/24 38/59/59 39/60/60 41/65/61
f 36/56/8 40/63/62 39/61/60 38/58/59
f 37/57/9 41/64/61 39/62/60 40/63/62
f 42/66/32 45/70/63 46/71/64 48/76/65
f 43/67/10 47/74/66 46/72/64 45/69/63
f 44/68/7 48/75/65 46/73/64 47/74/66
f 49/77/25 52/81/67 53/82/68 55/87/69
f 50/78/12 54/85/70 53/83/68 52/80/67
f 51/79/13 55/86/69 53/84/68 54/85/70
f 56/88/31 59/92/71 60/93/72 62/98/73
f 57/89/14 61/96/74 60/94/72 59/91/71
f 58/90/11 62/97/73 60/95/72 61/96/74
f 63/99/26 66/103/75 67/104/76 69/109/77
f 64/100/16 68/107/78 67/105/76 66/102/75
f 65/101/35 69/108/77 67/106/76 68/107/78
f 70/110/30 73/114/79 74/115/80 76/120/81
f 71/111/36 75/118/82 74/116/80 73/113/79
f 72/112/15 76/119/81 74/117/80 75/118/82
f 77/121/17 80/124/83 81/126/84 83/131/85
f 78/122/20 82/130/86 81/127/84 80/125/83
f 79/123/87 83/131/85 81/128/84 82/129/86
f 84/132/88 87/135/89 88/137/90 90/142/91
f 85/133/28 89/141/92 88/138/90 87/136/89
f 86/134/18 90/142/91 88/139/90 89/140/92
f 77/121/17 16/26/1 17/27/93 80/124/83
f 80/125/83 17/28/93 15/25/21 78/122/20
f 84/132/88 9/14/49 11/16/46 87/135/89
f 87/136/89 11/17/46 8/13/29 85/133/28
f 3/3/38 10/15/37 13/21/50 7/11/44
f 7/12/44 13/22/50 9/14/49 1/1/41
f 92/144/4 22/34/40 24/36/51 93/145/94
f 93/146/94 24/37/51 21/33/23 91/143/22
f 95/150/3 19/30/2 20/31/95 96/151/96
f 96/152/96 20/32/95 18/29/27 94/149/34
f 30/46/6 23/35/5 26/41/54 34/54/57
f 34/54/57 26/41/54 22/34/40 28/44/39
f 23/35/5 36/56/8 38/58/59 27/42/53
f 27/43/53 38/59/59 35/55/24 21/33/23
f 44/68/7 30/46/6 33/52/58 48/75/65
f 48/76/65 33/53/58 29/45/33 42/66/32
f 43/67/10 37/57/9 40/63/62 47/74/66
f 47/74/66 40/63/62 36/56/8 44/68/7
f 37/57/9 50/78/12 52/80/67 41/64/61
f 41/65/61 52/81/67 49/77/25 35/55/24
f 58/90/11 43/67/10 45/69/63 62/97/73
f 62/98/73 45/70/63 42/66/32 56/88/31
f 57/89/14 51/79/13 54/85/70 61/96/74
f 61/96/74 54/85/70 50/78/12 58/90/11
f 51/79/13 64/100/16 66/102/75 55/86/69
f 55/87/69 66/103/75 63/99/26 49/77/25
f 72/112/15 57/89/14 59/91/71 76/119/81
f 76/120/81 59/92/71 56/88/31 70/110/30
f 71/111/36 65/101/35 68/107/78 75/118/82
f 75/118/82 68/107/78 64/100/16 72/112/15
f 65/101/35 3/3/38 6/9/45 69/108/77
f 69/109/77 6/10/45 2/2/19 63/99/26
f 10/15/37 71/111/36 73/113/79 14/23/48
f 14/24/48 73/114/79 70/110/30 8/13/29
f 1/1/41 79/123/87 82/129/86 4/4/42
f 4/5/42 82/130/86 78/122/20 2/2/19
f 19/30/2 86/134/18 89/140/92 20/31/95
f 20/32/95 89/141/92 85/133/28 18/29/27
f 86/134/18 77/121/17 83/131/85 90/142/91
f 90/142/91 83/131/85 79/123/87 84/132/88
f 16/26/1 92/144/4 93/147/94 17/27/93
f 17/28/93 93/148/94 91/143/22 15/25/21
f 28/44/39 95/150/3 96/153/96 31/47/55
f 31/48/55 96/154/96 94/149/34 29/45/33
f 1/1/41 9/14/49 84/132/88 79/123/87
