# Blender 3.3.1
# www.blender.org
mtllib ground_water.mtl
o ground_water
v 0.000000 -4.041492 -3.769060
v -0.173205 -3.841492 -3.900000
v 0.173205 -3.841492 -3.900000
v -0.122474 -3.982913 -3.855240
v 0.000000 -3.956962 -3.908931
v 0.000000 -3.841492 -3.947829
v 0.122474 -3.982913 -3.855240
v 0.000000 -2.441492 -3.769060
v 0.173205 -2.641492 -3.900000
v -0.173205 -2.641492 -3.900000
v 0.122474 -2.500071 -3.855240
v -0.000000 -2.526022 -3.908931
v -0.000000 -2.641492 -3.947829
v -0.122474 -2.500071 -3.855240
v 3.264102 -4.041492 -1.884530
v 3.290897 -3.841492 -2.100000
v 3.464102 -3.841492 -1.800000
v 3.277499 -3.982913 -2.033686
v 3.385234 -3.956962 -1.954466
v 3.418921 -3.841492 -1.973914
v 3.399974 -3.982913 -1.821554
v 3.264102 -2.441492 -1.884530
v 3.464102 -2.641492 -1.800000
v 3.290897 -2.641492 -2.100000
v 3.399974 -2.500071 -1.821554
v 3.385234 -2.526022 -1.954466
v 3.418921 -2.641492 -1.973914
v 3.277499 -2.500071 -2.033686
v 3.264102 -4.041492 1.884530
v 3.464102 -3.841492 1.800000
v 3.290897 -3.841492 2.100000
v 3.399974 -3.982913 1.821554
v 3.385234 -3.956962 1.954466
v 3.418921 -3.841492 1.973914
v 3.277499 -3.982913 2.033686
v 3.264102 -2.441492 1.884530
v 3.290897 -2.641492 2.100000
v 3.464102 -2.641492 1.800000
v 3.277499 -2.500071 2.033686
v 3.385234 -2.526022 1.954466
v 3.418921 -2.641492 1.973914
v 3.399974 -2.500071 1.821554
v 0.000000 -4.041492 3.769060
v 0.173205 -3.841492 3.900000
v -0.173205 -3.841492 3.900000
v 0.122474 -3.982913 3.855240
v -0.000000 -3.956962 3.908931
v -0.000000 -3.841492 3.947829
v -0.122474 -3.982913 3.855240
v 0.000000 -2.441492 3.769060
v -0.173205 -2.641492 3.900000
v 0.173205 -2.641492 3.900000
v -0.122474 -2.500071 3.855240
v 0.000000 -2.526022 3.908931
v 0.000000 -2.641492 3.947829
v 0.122474 -2.500071 3.855240
v -3.264102 -4.041492 1.884530
v -3.290897 -3.841492 2.100000
v -3.464102 -3.841492 1.800000
v -3.277499 -3.982913 2.033686
v -3.385234 -3.956962 1.954466
v -3.418921 -3.841492 1.973914
v -3.399974 -3.982913 1.821554
v -3.264102 -2.441492 1.884530
v -3.464102 -2.641492 1.800000
v -3.290897 -2.641492 2.100000
v -3.399974 -2.500071 1.821554
v -3.385234 -2.526022 1.954466
v -3.418921 -2.641492 1.973914
v -3.277499 -2.500071 2.033686
v -3.264102 -4.041492 -1.884530
v -3.464102 -3.841492 -1.800000
v -3.290897 -3.841492 -2.100000
v -3.399974 -3.982913 -1.821554
v -3.385234 -3.956962 -1.954466
v -3.418921 -3.841492 -1.973914
v -3.277499 -3.982913 -2.033686
v -3.264102 -2.441492 -1.884530
v -3.290897 -2.641492 -2.100000
v -3.464102 -2.641492 -1.800000
v -3.277499 -2.500071 -2.033686
v -3.385234 -2.526022 -1.954466
v -3.418921 -2.641492 -1.973914
v -3.399974 -2.500071 -1.821554
v 0.000000 -2.441492 -3.769060
v -0.173205 -2.241492 -3.900000
v 0.173205 -2.241492 -3.900000
v -0.122474 -2.382913 -3.855240
v 0.000000 -2.356962 -3.908931
v 0.000000 -2.241492 -3.947829
v 0.122474 -2.382913 -3.855240
v 0.000000 -0.841492 -3.769060
v 0.173205 -1.041492 -3.900000
v -0.173205 -1.041492 -3.900000
v 0.122474 -0.900070 -3.855240
v -0.000000 -0.926022 -3.908931
v -0.000000 -1.041492 -3.947829
v -0.122474 -0.900070 -3.855240
v 3.264102 -2.441492 -1.884530
v 3.290897 -2.241492 -2.100000
v 3.464102 -2.241492 -1.800000
v 3.277499 -2.382913 -2.033686
v 3.385234 -2.356962 -1.954466
v 3.418921 -2.241492 -1.973914
v 3.399974 -2.382913 -1.821554
v 3.264102 -0.841492 -1.884530
v 3.464102 -1.041492 -1.800000
v 3.290897 -1.041492 -2.100000
v 3.399974 -0.900070 -1.821554
v 3.385234 -0.926022 -1.954466
v 3.418921 -1.041492 -1.973914
v 3.277499 -0.900070 -2.033686
v 3.264102 -2.441492 1.884530
v 3.464102 -2.241492 1.800000
v 3.290897 -2.241492 2.100000
v 3.399974 -2.382913 1.821554
v 3.385234 -2.356962 1.954466
v 3.418921 -2.241492 1.973914
v 3.277499 -2.382913 2.033686
v 3.264102 -0.841492 1.884530
v 3.290897 -1.041492 2.100000
v 3.464102 -1.041492 1.800000
v 3.277499 -0.900070 2.033686
v 3.385234 -0.926022 1.954466
v 3.418921 -1.041492 1.973914
v 3.399974 -0.900070 1.821554
v 0.000000 -2.441492 3.769060
v 0.173205 -2.241492 3.900000
v -0.173205 -2.241492 3.900000
v 0.122474 -2.382913 3.855240
v -0.000000 -2.356962 3.908931
v -0.000000 -2.241492 3.947829
v -0.122474 -2.382913 3.855240
v 0.000000 -0.841492 3.769060
v -0.173205 -1.041492 3.900000
v 0.173205 -1.041492 3.900000
v -0.122474 -0.900070 3.855240
v 0.000000 -0.926022 3.908931
v 0.000000 -1.041492 3.947829
v 0.122474 -0.900070 3.855240
v -3.264102 -2.441492 1.884530
v -3.290897 -2.241492 2.100000
v -3.464102 -2.241492 1.800000
v -3.277499 -2.382913 2.033686
v -3.385234 -2.356962 1.954466
v -3.418921 -2.241492 1.973914
v -3.399974 -2.382913 1.821554
v -3.264102 -0.841492 1.884530
v -3.464102 -1.041492 1.800000
v -3.290897 -1.041492 2.100000
v -3.399974 -0.900070 1.821554
v -3.385234 -0.926022 1.954466
v -3.418921 -1.041492 1.973914
v -3.277499 -0.900070 2.033686
v -3.264102 -2.441492 -1.884530
v -3.464102 -2.241492 -1.800000
v -3.290897 -2.241492 -2.100000
v -3.399974 -2.382913 -1.821554
v -3.385234 -2.356962 -1.954466
v -3.418921 -2.241492 -1.973914
v -3.277499 -2.382913 -2.033686
v -3.264102 -0.841492 -1.884530
v -3.290897 -1.041492 -2.100000
v -3.464102 -1.041492 -1.800000
v -3.277499 -0.900070 -2.033686
v -3.385234 -0.926022 -1.954466
v -3.418921 -1.041492 -1.973914
v -3.399974 -0.900070 -1.821554
vn -0.5840 -0.1940 -0.7882
vn -0.5840 0.1940 -0.7882
vn -0.3906 0.1940 -0.8999
vn -0.3906 -0.1940 -0.8999
vn 0.5840 -0.1940 0.7882
vn 0.5840 0.1940 0.7882
vn 0.3906 0.1940 0.8999
vn 0.3906 -0.1940 0.8999
vn -0.3906 -0.1940 0.8999
vn -0.3906 0.1940 0.8999
vn -0.5840 0.1940 0.7882
vn -0.5840 -0.1940 0.7882
vn -0.9746 -0.1940 0.1117
vn -0.9746 0.1940 0.1117
vn -0.9746 0.1940 -0.1117
vn -0.9746 -0.1940 -0.1117
vn 0.9746 -0.1940 -0.1117
vn 0.9746 0.1940 -0.1117
vn 0.9746 0.1940 0.1117
vn 0.9746 -0.1940 0.1117
vn 0.2462 0.9587 -0.1421
vn -0.0000 0.9587 -0.2843
vn -0.2462 0.9587 -0.1421
vn -0.2462 0.9587 0.1421
vn -0.0000 0.9587 0.2843
vn 0.2462 0.9587 0.1421
vn 0.3906 -0.1940 -0.8999
vn 0.3906 0.1940 -0.8999
vn 0.5840 0.1940 -0.7882
vn 0.5840 -0.1940 -0.7882
vn -0.0000 -0.9587 -0.2843
vn -0.2606 -0.6933 -0.6719
vn -0.0000 -0.5791 -0.8152
vn 0.2606 -0.6933 -0.6719
vn -0.0000 -0.1781 -0.9840
vn 0.2606 0.6933 -0.6719
vn -0.0000 0.5791 -0.8152
vn -0.2606 0.6933 -0.6719
vn -0.0000 0.1781 -0.9840
vn 0.2462 -0.9587 -0.1421
vn 0.4516 -0.6933 -0.5616
vn 0.7060 -0.5791 -0.4076
vn 0.7122 -0.6933 -0.1103
vn 0.8522 -0.1781 -0.4920
vn 0.7122 0.6933 -0.1103
vn 0.7060 0.5791 -0.4076
vn 0.4516 0.6933 -0.5616
vn 0.8522 0.1781 -0.4920
vn 0.2462 -0.9587 0.1421
vn 0.7122 -0.6933 0.1103
vn 0.7060 -0.5791 0.4076
vn 0.4516 -0.6933 0.5616
vn 0.8522 -0.1781 0.4920
vn 0.4516 0.6933 0.5616
vn 0.7060 0.5791 0.4076
vn 0.7122 0.6933 0.1103
vn 0.8522 0.1781 0.4920
vn -0.0000 -0.9587 0.2843
vn 0.2606 -0.6933 0.6719
vn -0.0000 -0.5791 0.8152
vn -0.2606 -0.6933 0.6719
vn -0.0000 -0.1781 0.9840
vn -0.2606 0.6933 0.6719
vn -0.0000 0.5791 0.8152
vn 0.2606 0.6933 0.6719
vn -0.0000 0.1781 0.9840
vn -0.2462 -0.9587 0.1421
vn -0.4516 -0.6933 0.5616
vn -0.7060 -0.5791 0.4076
vn -0.7122 -0.6933 0.1103
vn -0.8522 -0.1781 0.4920
vn -0.7122 0.6933 0.1103
vn -0.7060 0.5791 0.4076
vn -0.4516 0.6933 0.5616
vn -0.8522 0.1781 0.4920
vn -0.2462 -0.9587 -0.1421
vn -0.7122 -0.6933 -0.1103
vn -0.7060 -0.5791 -0.4076
vn -0.4516 -0.6933 -0.5616
vn -0.8522 -0.1781 -0.4920
vn -0.4516 0.6933 -0.5616
vn -0.7060 0.5791 -0.4076
vn -0.7122 0.6933 -0.1103
vn -0.8522 0.1781 -0.4920
vt 0.750000 0.476144
vt 0.008333 0.562500
vt 0.991667 0.562500
vt 0.007435 0.500000
vt 0.740728 0.484647
vt 0.747634 0.488634
vt -0.000000 0.526416
vt 0.998103 0.500000
vt -0.000000 0.562500
vt 1.000000 0.562500
vt 0.992565 0.500000
vt 0.759272 0.484647
vt 0.250000 0.476144
vt 0.991667 0.937500
vt 0.008333 0.937500
vt 0.992565 1.000000
vt 0.259272 0.484647
vt 0.252366 0.488634
vt 1.000000 0.973584
vt 0.001897 1.000000
vt -0.000000 0.937500
vt 1.000000 0.937500
vt 0.007435 1.000000
vt 0.240728 0.484647
vt 0.945846 0.363072
vt 0.841667 0.562500
vt 0.825000 0.562500
vt 0.840769 0.500000
vt 0.948574 0.375353
vt 0.955480 0.371366
vt 0.833333 0.526416
vt 0.831436 0.500000
vt 0.833333 0.562500
vt 0.825898 0.500000
vt 0.957846 0.359293
vt 0.445846 0.363072
vt 0.825000 0.937500
vt 0.841667 0.937500
vt 0.825898 1.000000
vt 0.457846 0.359293
vt 0.457846 0.367268
vt 0.833333 0.973584
vt 0.835231 1.000000
vt 0.833333 0.937500
vt 0.840769 1.000000
vt 0.448574 0.375353
vt 0.945846 0.136928
vt 0.675000 0.562500
vt 0.658333 0.562500
vt 0.674102 0.500000
vt 0.957846 0.140707
vt 0.957846 0.132732
vt 0.666667 0.526416
vt 0.664769 0.500000
vt 0.666667 0.562500
vt 0.659231 0.500000
vt 0.948574 0.124647
vt 0.445846 0.136928
vt 0.658333 0.937500
vt 0.675000 0.937500
vt 0.659231 1.000000
vt 0.448574 0.124647
vt 0.455480 0.128634
vt 0.666667 0.973584
vt 0.668564 1.000000
vt 0.666667 0.937500
vt 0.674102 1.000000
vt 0.457846 0.140707
vt 0.750000 0.023856
vt 0.508333 0.562500
vt 0.491667 0.562500
vt 0.507435 0.500000
vt 0.759272 0.015353
vt 0.752366 0.011366
vt 0.500000 0.526416
vt 0.498103 0.500000
vt 0.500000 0.562500
vt 0.492565 0.500000
vt 0.740728 0.015353
vt 0.250000 0.023856
vt 0.491667 0.937500
vt 0.508333 0.937500
vt 0.492565 1.000000
vt 0.240728 0.015353
vt 0.247634 0.011366
vt 0.500000 0.973584
vt 0.501897 1.000000
vt 0.500000 0.937500
vt 0.507435 1.000000
vt 0.259272 0.015353
vt 0.554154 0.136928
vt 0.341667 0.562500
vt 0.325000 0.562500
vt 0.340768 0.500000
vt 0.551426 0.124647
vt 0.544520 0.128634
vt 0.333333 0.526416
vt 0.331436 0.500000
vt 0.333333 0.562500
vt 0.325898 0.500000
vt 0.542154 0.140707
vt 0.054154 0.136928
vt 0.325000 0.937500
vt 0.341667 0.937500
vt 0.325898 1.000000
vt 0.042154 0.140707
vt 0.042154 0.132732
vt 0.333333 0.973584
vt 0.335230 1.000000
vt 0.333333 0.937500
vt 0.340768 1.000000
vt 0.051426 0.124647
vt 0.554154 0.363072
vt 0.175000 0.562500
vt 0.158333 0.562500
vt 0.174102 0.500000
vt 0.542154 0.359293
vt 0.542154 0.367268
vt 0.166667 0.526416
vt 0.164769 0.500000
vt 0.166667 0.562500
vt 0.159231 0.500000
vt 0.551426 0.375353
vt 0.054154 0.363072
vt 0.158333 0.937500
vt 0.175000 0.937500
vt 0.159231 1.000000
vt 0.051426 0.375353
vt 0.044520 0.371366
vt 0.166667 0.973584
vt 0.168564 1.000000
vt 0.166667 0.937500
vt 0.174102 1.000000
vt 0.042154 0.359293
vt 0.750000 0.476144
vt 0.008333 0.562500
vt 0.991667 0.562500
vt 0.007435 0.500000
vt 0.740728 0.484647
vt 0.747634 0.488634
vt -0.000000 0.526416
vt 0.998103 0.500000
vt -0.000000 0.562500
vt 1.000000 0.562500
vt 0.992565 0.500000
vt 0.759272 0.484647
vt 0.250000 0.476144
vt 0.991667 0.937500
vt 0.008333 0.937500
vt 0.992565 1.000000
vt 0.259272 0.484647
vt 0.252366 0.488634
vt 1.000000 0.973584
vt 0.001897 1.000000
vt -0.000000 0.937500
vt 1.000000 0.937500
vt 0.007435 1.000000
vt 0.240728 0.484647
vt 0.945846 0.363072
vt 0.841667 0.562500
vt 0.825000 0.562500
vt 0.840769 0.500000
vt 0.948574 0.375353
vt 0.955480 0.371366
vt 0.833333 0.526416
vt 0.831436 0.500000
vt 0.833333 0.562500
vt 0.825898 0.500000
vt 0.957846 0.359293
vt 0.445846 0.363072
vt 0.825000 0.937500
vt 0.841667 0.937500
vt 0.825898 1.000000
vt 0.457846 0.359293
vt 0.457846 0.367268
vt 0.833333 0.973584
vt 0.835231 1.000000
vt 0.833333 0.937500
vt 0.840769 1.000000
vt 0.448574 0.375353
vt 0.945846 0.136928
vt 0.675000 0.562500
vt 0.658333 0.562500
vt 0.674102 0.500000
vt 0.957846 0.140707
vt 0.957846 0.132732
vt 0.666667 0.526416
vt 0.664769 0.500000
vt 0.666667 0.562500
vt 0.659231 0.500000
vt 0.948574 0.124647
vt 0.445846 0.136928
vt 0.658333 0.937500
vt 0.675000 0.937500
vt 0.659231 1.000000
vt 0.448574 0.124647
vt 0.455480 0.128634
vt 0.666667 0.973584
vt 0.668564 1.000000
vt 0.666667 0.937500
vt 0.674102 1.000000
vt 0.457846 0.140707
vt 0.750000 0.023856
vt 0.508333 0.562500
vt 0.491667 0.562500
vt 0.507435 0.500000
vt 0.759272 0.015353
vt 0.752366 0.011366
vt 0.500000 0.526416
vt 0.498103 0.500000
vt 0.500000 0.562500
vt 0.492565 0.500000
vt 0.740728 0.015353
vt 0.250000 0.023856
vt 0.491667 0.937500
vt 0.508333 0.937500
vt 0.492565 1.000000
vt 0.240728 0.015353
vt 0.247634 0.011366
vt 0.500000 0.973584
vt 0.501897 1.000000
vt 0.500000 0.937500
vt 0.507435 1.000000
vt 0.259272 0.015353
vt 0.554154 0.136928
vt 0.341667 0.562500
vt 0.325000 0.562500
vt 0.340768 0.500000
vt 0.551426 0.124647
vt 0.544520 0.128634
vt 0.333333 0.526416
vt 0.331436 0.500000
vt 0.333333 0.562500
vt 0.325898 0.500000
vt 0.542154 0.140707
vt 0.054154 0.136928
vt 0.325000 0.937500
vt 0.341667 0.937500
vt 0.325898 1.000000
vt 0.042154 0.140707
vt 0.042154 0.132732
vt 0.333333 0.973584
vt 0.335230 1.000000
vt 0.333333 0.937500
vt 0.340768 1.000000
vt 0.051426 0.124647
vt 0.554154 0.363072
vt 0.175000 0.562500
vt 0.158333 0.562500
vt 0.174102 0.500000
vt 0.542154 0.359293
vt 0.542154 0.367268
vt 0.166667 0.526416
vt 0.164769 0.500000
vt 0.166667 0.562500
vt 0.159231 0.500000
vt 0.551426 0.375353
vt 0.054154 0.363072
vt 0.158333 0.937500
vt 0.175000 0.937500
vt 0.159231 1.000000
vt 0.051426 0.375353
vt 0.044520 0.371366
vt 0.166667 0.973584
vt 0.168564 1.000000
vt 0.166667 0.937500
vt 0.174102 1.000000
vt 0.042154 0.359293
s 1
usemtl ground
f 73/115/1 79/125/2 10/15/3 2/2/4
f 31/49/5 37/59/6 52/82/7 44/70/8
f 45/71/9 51/81/10 66/104/11 58/92/12
f 59/93/13 65/103/14 80/126/15 72/114/16
f 17/27/17 23/37/18 38/60/19 30/48/20
f 22/36/21 8/13/22 78/124/23 64/102/24 50/80/25 36/58/26
f 3/3/27 9/14/28 24/38/29 16/26/30
f 1/1/31 4/5/32 5/6/33 7/12/34
f 2/2/4 6/9/35 5/7/33 4/4/32
f 3/3/27 7/11/34 5/8/33 6/10/35
f 8/13/22 11/17/36 12/18/37 14/24/38
f 9/14/28 13/22/39 12/19/37 11/16/36
f 10/15/3 14/23/38 12/20/37 13/21/39
f 15/25/40 18/29/41 19/30/42 21/35/43
f 16/26/30 20/33/44 19/31/42 18/28/41
f 17/27/17 21/34/43 19/32/42 20/33/44
f 22/36/21 25/40/45 26/41/46 28/46/47
f 23/37/18 27/44/48 26/42/46 25/39/45
f 24/38/29 28/45/47 26/43/46 27/44/48
f 29/47/49 32/51/50 33/52/51 35/57/52
f 30/48/20 34/55/53 33/53/51 32/50/50
f 31/49/5 35/56/52 33/54/51 34/55/53
f 36/58/26 39/62/54 40/63/55 42/68/56
f 37/59/6 41/66/57 40/64/55 39/61/54
f 38/60/19 42/67/56 40/65/55 41/66/57
f 43/69/58 46/73/59 47/74/60 49/79/61
f 44/70/8 48/77/62 47/75/60 46/72/59
f 45/71/9 49/78/61 47/76/60 48/77/62
f 50/80/25 53/84/63 54/85/64 56/90/65
f 51/81/10 55/88/66 54/86/64 53/83/63
f 52/82/7 56/89/65 54/87/64 55/88/66
f 57/91/67 60/95/68 61/96/69 63/101/70
f 58/92/12 62/99/71 61/97/69 60/94/68
f 59/93/13 63/100/70 61/98/69 62/99/71
f 64/102/24 67/106/72 68/107/73 70/112/74
f 65/103/14 69/110/75 68/108/73 67/105/72
f 66/104/11 70/111/74 68/109/73 69/110/75
f 71/113/76 74/117/77 75/118/78 77/123/79
f 72/114/16 76/121/80 75/119/78 74/116/77
f 73/115/1 77/122/79 75/120/78 76/121/80
f 78/124/23 81/128/81 82/129/82 84/134/83
f 79/125/2 83/132/84 82/130/82 81/127/81
f 80/126/15 84/133/83 82/131/82 83/132/84
f 3/3/27 16/26/30 18/28/41 7/11/34
f 7/12/34 18/29/41 15/25/40 1/1/31
f 24/38/29 9/14/28 11/16/36 28/45/47
f 28/46/47 11/17/36 8/13/22 22/36/21
f 2/2/4 10/15/3 13/21/39 6/9/35
f 6/10/35 13/22/39 9/14/28 3/3/27
f 23/37/18 17/27/17 20/33/44 27/44/48
f 27/44/48 20/33/44 16/26/30 24/38/29
f 17/27/17 30/48/20 32/50/50 21/34/43
f 21/35/43 32/51/50 29/47/49 15/25/40
f 38/60/19 23/37/18 25/39/45 42/67/56
f 42/68/56 25/40/45 22/36/21 36/58/26
f 37/59/6 31/49/5 34/55/53 41/66/57
f 41/66/57 34/55/53 30/48/20 38/60/19
f 31/49/5 44/70/8 46/72/59 35/56/52
f 35/57/52 46/73/59 43/69/58 29/47/49
f 52/82/7 37/59/6 39/61/54 56/89/65
f 56/90/65 39/62/54 36/58/26 50/80/25
f 51/81/10 45/71/9 48/77/62 55/88/66
f 55/88/66 48/77/62 44/70/8 52/82/7
f 45/71/9 58/92/12 60/94/68 49/78/61
f 49/79/61 60/95/68 57/91/67 43/69/58
f 66/104/11 51/81/10 53/83/63 70/111/74
f 70/112/74 53/84/63 50/80/25 64/102/24
f 65/103/14 59/93/13 62/99/71 69/110/75
f 69/110/75 62/99/71 58/92/12 66/104/11
f 59/93/13 72/114/16 74/116/77 63/100/70
f 63/101/70 74/117/77 71/113/76 57/91/67
f 80/126/15 65/103/14 67/105/72 84/133/83
f 84/134/83 67/106/72 64/102/24 78/124/23
f 79/125/2 73/115/1 76/121/80 83/132/84
f 83/132/84 76/121/80 72/114/16 80/126/15
f 73/115/1 2/2/4 4/4/32 77/122/79
f 77/123/79 4/5/32 1/1/31 71/113/76
f 10/15/3 79/125/2 81/127/81 14/23/38
f 14/24/38 81/128/81 78/124/23 8/13/22
f 1/1/31 15/25/40 29/47/49 43/69/58 57/91/67 71/113/76
usemtl water
f 157/249/1 163/259/2 94/149/3 86/136/4
f 115/183/5 121/193/6 136/216/7 128/204/8
f 129/205/9 135/215/10 150/238/11 142/226/12
f 143/227/13 149/237/14 164/260/15 156/248/16
f 101/161/17 107/171/18 122/194/19 114/182/20
f 106/170/21 92/147/22 162/258/23 148/236/24 134/214/25 120/192/26
f 87/137/27 93/148/28 108/172/29 100/160/30
f 85/135/31 88/139/32 89/140/33 91/146/34
f 86/136/4 90/143/35 89/141/33 88/138/32
f 87/137/27 91/145/34 89/142/33 90/144/35
f 92/147/22 95/151/36 96/152/37 98/158/38
f 93/148/28 97/156/39 96/153/37 95/150/36
f 94/149/3 98/157/38 96/154/37 97/155/39
f 99/159/40 102/163/41 103/164/42 105/169/43
f 100/160/30 104/167/44 103/165/42 102/162/41
f 101/161/17 105/168/43 103/166/42 104/167/44
f 106/170/21 109/174/45 110/175/46 112/180/47
f 107/171/18 111/178/48 110/176/46 109/173/45
f 108/172/29 112/179/47 110/177/46 111/178/48
f 113/181/49 116/185/50 117/186/51 119/191/52
f 114/182/20 118/189/53 117/187/51 116/184/50
f 115/183/5 119/190/52 117/188/51 118/189/53
f 120/192/26 123/196/54 124/197/55 126/202/56
f 121/193/6 125/200/57 124/198/55 123/195/54
f 122/194/19 126/201/56 124/199/55 125/200/57
f 127/203/58 130/207/59 131/208/60 133/213/61
f 128/204/8 132/211/62 131/209/60 130/206/59
f 129/205/9 133/212/61 131/210/60 132/211/62
f 134/214/25 137/218/63 138/219/64 140/224/65
f 135/215/10 139/222/66 138/220/64 137/217/63
f 136/216/7 140/223/65 138/221/64 139/222/66
f 141/225/67 144/229/68 145/230/69 147/235/70
f 142/226/12 146/233/71 145/231/69 144/228/68
f 143/227/13 147/234/70 145/232/69 146/233/71
f 148/236/24 151/240/72 152/241/73 154/246/74
f 149/237/14 153/244/75 152/242/73 151/239/72
f 150/238/11 154/245/74 152/243/73 153/244/75
f 155/247/76 158/251/77 159/252/78 161/257/79
f 156/248/16 160/255/80 159/253/78 158/250/77
f 157/249/1 161/256/79 159/254/78 160/255/80
f 162/258/23 165/262/81 166/263/82 168/268/83
f 163/259/2 167/266/84 166/264/82 165/261/81
f 164/260/15 168/267/83 166/265/82 167/266/84
f 87/137/27 100/160/30 102/162/41 91/145/34
f 91/146/34 102/163/41 99/159/40 85/135/31
f 108/172/29 93/148/28 95/150/36 112/179/47
f 112/180/47 95/151/36 92/147/22 106/170/21
f 86/136/4 94/149/3 97/155/39 90/143/35
f 90/144/35 97/156/39 93/148/28 87/137/27
f 107/171/18 101/161/17 104/167/44 111/178/48
f 111/178/48 104/167/44 100/160/30 108/172/29
f 101/161/17 114/182/20 116/184/50 105/168/43
f 105/169/43 116/185/50 113/181/49 99/159/40
f 122/194/19 107/171/18 109/173/45 126/201/56
f 126/202/56 109/174/45 106/170/21 120/192/26
f 121/193/6 115/183/5 118/189/53 125/200/57
f 125/200/57 118/189/53 114/182/20 122/194/19
f 115/183/5 128/204/8 130/206/59 119/190/52
f 119/191/52 130/207/59 127/203/58 113/181/49
f 136/216/7 121/193/6 123/195/54 140/223/65
f 140/224/65 123/196/54 120/192/26 134/214/25
f 135/215/10 129/205/9 132/211/62 139/222/66
f 139/222/66 132/211/62 128/204/8 136/216/7
f 129/205/9 142/226/12 144/228/68 133/212/61
f 133/213/61 144/229/68 141/225/67 127/203/58
f 150/238/11 135/215/10 137/217/63 154/245/74
f 154/246/74 137/218/63 134/214/25 148/236/24
f 149/237/14 143/227/13 146/233/71 153/244/75
f 153/244/75 146/233/71 142/226/12 150/238/11
f 143/227/13 156/248/16 158/250/77 147/234/70
f 147/235/70 158/251/77 155/247/76 141/225/67
f 164/260/15 149/237/14 151/239/72 168/267/83
f 168/268/83 151/240/72 148/236/24 162/258/23
f 163/259/2 157/249/1 160/255/80 167/266/84
f 167/266/84 160/255/80 156/248/16 164/260/15
f 157/249/1 86/136/4 88/138/32 161/256/79
f 161/257/79 88/139/32 85/135/31 155/247/76
f 94/149/3 163/259/2 165/261/81 98/157/38
f 98/158/38 165/262/81 162/258/23 92/147/22
f 85/135/31 99/159/40 113/181/49 127/203/58 141/225/67 155/247/76
