# Blender 3.3.1
# www.blender.org
mtllib rock2.mtl
o rock2
v 0.751656 -0.115492 -1.373060
v 0.751656 0.303449 -1.338756
v 0.685163 -0.174201 -1.731076
v 0.685163 0.364060 -1.616727
v 1.176453 -0.115492 -1.373060
v 1.176453 0.303449 -1.338756
v 1.242947 -0.174201 -1.731076
v 1.242947 0.364060 -1.616727
v 0.764575 0.289786 -1.858559
v 0.764575 -0.091602 -1.961473
v 1.163534 -0.091602 -1.961473
v 1.163534 0.289786 -1.858559
v 0.693522 -0.170519 -1.518662
v 0.705112 0.094003 -1.330288
v 0.693522 0.358547 -1.448386
v 0.580578 0.094929 -1.673901
v 0.964055 -0.275125 -1.752516
v 0.964055 0.464984 -1.595287
v 1.347531 0.094929 -1.673901
v 1.234587 -0.170519 -1.518662
v 1.234587 0.358547 -1.448386
v 1.222998 0.094003 -1.330288
v 0.964055 -0.161971 -1.347678
v 0.964055 0.349977 -1.312897
v 0.722188 0.099490 -1.924871
v 0.964055 -0.131666 -1.987603
v 0.964055 0.330646 -1.862138
v 1.205921 0.099490 -1.924871
v 1.223627 -0.151397 -1.893798
v 1.223627 0.345810 -1.765315
v 0.704483 -0.151397 -1.893798
v 0.704483 0.345810 -1.765315
v 0.591786 0.094016 -1.480998
v 1.320952 0.097246 -1.831021
v 1.336323 0.094016 -1.480998
v 0.964055 0.094055 -1.276521
v 0.964055 -0.270128 -1.528583
v 0.964055 0.458161 -1.433412
v 0.964055 0.100325 -1.956044
v 0.964055 -0.244558 -1.919422
v 0.964055 0.439050 -1.742619
v 0.607158 0.097246 -1.831021
vn -0.4611 -0.5251 0.7153
vn -0.5656 -0.0650 0.8221
vn -0.9516 -0.0284 0.3059
vn -0.6618 -0.6993 0.2704
vn -0.4540 0.4019 0.7952
vn -0.6750 0.6545 0.3406
vn -0.6951 0.7170 -0.0529
vn -0.9984 0.0114 -0.0559
vn -0.7049 -0.7055 -0.0735
vn 0.6951 0.7170 -0.0529
vn 0.9984 0.0114 -0.0559
vn 0.8883 0.0898 -0.4503
vn 0.5970 0.6896 -0.4099
vn 0.7049 -0.7055 -0.0735
vn 0.6474 -0.5642 -0.5124
vn 0.3638 -0.1699 -0.9158
vn 0.4304 0.2159 -0.8764
vn 0.3287 0.5270 -0.7837
vn 0.9516 -0.0284 0.3059
vn 0.6618 -0.6993 0.2704
vn 0.6750 0.6545 0.3406
vn 0.4540 0.4019 0.7952
vn 0.5656 -0.0650 0.8221
vn 0.4611 -0.5251 0.7153
vn -0.0000 -0.0704 0.9975
vn -0.0000 -0.6307 0.7760
vn -0.0000 0.5083 0.8612
vn -0.0000 -0.9968 -0.0804
vn -0.0000 -0.9690 0.2472
vn -0.0000 0.9985 -0.0556
vn -0.0000 0.9401 0.3410
vn -0.3638 -0.1699 -0.9158
vn -0.4304 0.2159 -0.8764
vn -0.0000 0.2562 -0.9666
vn -0.0000 -0.2567 -0.9665
vn -0.3287 0.5270 -0.7837
vn -0.0000 0.6009 -0.7993
vn -0.0000 -0.8504 -0.5261
vn -0.6474 -0.5642 -0.5124
vn -0.0000 0.9204 -0.3910
vn -0.5970 0.6896 -0.4099
vn -0.8883 0.0898 -0.4503
vt 0.375000 0.000000
vt 0.375000 1.000000
vt 0.125000 0.750000
vt 0.625000 0.000000
vt 0.625000 1.000000
vt 0.875000 0.750000
vt 0.125000 0.500000
vt 0.375000 0.250000
vt 0.875000 0.500000
vt 0.625000 0.250000
vt 0.375000 0.750000
vt 0.625000 0.750000
vt 0.375000 0.541667
vt 0.625000 0.541667
vt 0.875000 0.500000
vt 0.625000 0.250000
vt 0.125000 0.500000
vt 0.375000 0.250000
vt 0.375000 0.500000
vt 0.625000 0.500000
vt 0.375000 0.125000
vt 0.125000 0.625000
vt 0.500000 0.000000
vt 0.500000 1.000000
vt 0.625000 0.125000
vt 0.875000 0.625000
vt 0.500000 0.215278
vt 0.250000 0.538194
vt 0.750000 0.538194
vt 0.500000 0.541667
vt 0.375000 0.630208
vt 0.625000 0.630208
vt 0.500000 0.750000
vt 0.375000 0.875000
vt 0.250000 0.750000
vt 0.625000 0.875000
vt 0.750000 0.750000
vt 0.500000 0.284722
vt 0.375000 0.375000
vt 0.250000 0.500000
vt 0.625000 0.375000
vt 0.750000 0.500000
vt 0.500000 0.465278
vt 0.375000 0.504340
vt 0.625000 0.504340
vt 0.125000 0.500000
vt 0.375000 0.250000
vt 0.875000 0.500000
vt 0.625000 0.250000
vt 0.500000 0.121528
vt 0.500000 0.501736
vt 0.500000 0.630208
vt 0.500000 0.875000
vt 0.250000 0.629340
vt 0.750000 0.629340
vt 0.500000 0.375000
vt 0.250000 0.504340
vt 0.750000 0.504340
vt 0.500000 0.250000
s 1
usemtl rocks
f 1/1/1 14/23/2 33/50/3 13/21/4
f 14/23/2 2/4/5 15/25/6 33/50/3
f 33/50/3 15/25/6 4/10/7 16/27/8
f 13/21/4 33/50/3 16/27/8 3/8/9
f 8/14/10 19/30/11 34/51/12 30/45/13
f 19/30/11 7/13/14 29/44/15 34/51/12
f 34/51/12 29/44/15 11/19/16 28/43/17
f 30/45/13 34/51/12 28/43/17 12/20/18
f 7/13/14 19/30/11 35/52/19 20/31/20
f 19/30/11 8/14/10 21/32/21 35/52/19
f 35/52/19 21/32/21 6/12/22 22/33/23
f 20/31/20 35/52/19 22/33/23 5/11/24
f 5/11/24 22/33/23 36/53/25 23/34/26
f 22/33/23 6/12/22 24/36/27 36/53/25
f 36/53/25 24/36/27 2/5/5 14/24/2
f 23/34/26 36/53/25 14/24/2 1/2/1
f 3/7/9 17/28/28 37/54/29 13/22/4
f 17/28/28 7/13/14 20/31/20 37/54/29
f 37/54/29 20/31/20 5/11/24 23/35/26
f 13/22/4 37/54/29 23/35/26 1/3/1
f 8/14/10 18/29/30 38/55/31 21/32/21
f 18/29/30 4/9/7 15/26/6 38/55/31
f 38/55/31 15/26/6 2/6/5 24/37/27
f 21/32/21 38/55/31 24/37/27 6/12/22
f 10/18/32 25/38/33 39/56/34 26/39/35
f 25/38/33 9/16/36 27/41/37 39/56/34
f 39/56/34 27/41/37 12/20/18 28/43/17
f 26/39/35 39/56/34 28/43/17 11/19/16
f 7/13/14 17/28/28 40/57/38 29/44/15
f 17/28/28 3/7/9 31/46/39 40/57/38
f 40/57/38 31/46/39 10/17/32 26/40/35
f 29/44/15 40/57/38 26/40/35 11/19/16
f 4/9/7 18/29/30 41/58/40 32/48/41
f 18/29/30 8/14/10 30/45/13 41/58/40
f 41/58/40 30/45/13 12/20/18 27/42/37
f 32/48/41 41/58/40 27/42/37 9/15/36
f 3/8/9 16/27/8 42/59/42 31/47/39
f 16/27/8 4/10/7 32/49/41 42/59/42
f 42/59/42 32/49/41 9/16/36 25/38/33
f 31/47/39 42/59/42 25/38/33 10/18/32
