# Blender 3.3.1
# www.blender.org
mtllib rock1.mtl
o rock1
v 0.014473 -0.110262 1.512004
v 0.014473 0.314535 1.512004
v -0.033167 -0.150841 0.913351
v -0.033167 0.369236 0.913351
v 0.439270 -0.110262 1.512004
v 0.439270 0.314535 1.512004
v 0.486910 -0.150841 0.913351
v 0.486910 0.369236 0.913351
v 0.083953 0.254133 0.525819
v 0.083953 -0.031703 0.525819
v 0.369790 -0.031703 0.525819
v 0.369790 0.254133 0.525819
v -0.041304 -0.162883 1.331003
v -0.032072 0.101473 1.547938
v -0.041304 0.373469 1.331003
v -0.130681 0.109198 0.913351
v 0.226871 -0.248355 0.913351
v 0.226871 0.466750 0.913351
v 0.584424 0.109198 0.913351
v 0.495047 -0.162882 1.331003
v 0.495047 0.373469 1.331003
v 0.485814 0.101473 1.547938
v 0.226871 -0.157470 1.547938
v 0.226871 0.360416 1.547938
v 0.059764 0.111215 0.499691
v 0.226871 -0.055892 0.499691
v 0.226871 0.278322 0.499691
v 0.393978 0.111215 0.499691
v 0.436101 -0.098267 0.663870
v 0.436101 0.320193 0.663870
v 0.017641 -0.098267 0.663870
v 0.017641 0.320193 0.663870
v -0.142157 0.105227 1.334546
v 0.513231 0.110963 0.661294
v 0.595900 0.105227 1.334546
v 0.226871 0.100081 1.623348
v 0.226871 -0.263800 1.334546
v 0.226871 0.474256 1.334546
v 0.226871 0.111215 0.444858
v 0.226871 -0.175397 0.661294
v 0.226871 0.397323 0.661294
v -0.059489 0.110963 0.661294
v 0.573272 -0.094453 1.781029
v 0.573272 0.324488 1.815333
v 0.563186 -0.153162 1.432705
v 0.563186 0.385098 1.547054
v 1.003926 -0.094453 1.806130
v 1.003926 0.324488 1.840434
v 1.084713 -0.153162 1.443861
v 1.084713 0.385098 1.558209
v 0.664631 0.310824 1.283816
v 0.664631 -0.070564 1.180903
v 1.014225 -0.070564 1.169189
v 1.014225 0.310824 1.272102
v 0.537375 -0.149481 1.639906
v 0.520948 0.115042 1.819041
v 0.537376 0.379586 1.710182
v 0.465400 0.115968 1.487788
v 0.823949 -0.254086 1.416843
v 0.823949 0.486022 1.574072
v 1.182499 0.115968 1.503127
v 1.070354 -0.149481 1.665218
v 1.070354 0.379586 1.735494
v 1.049924 0.115042 1.851188
v 0.785436 -0.140932 1.817724
v 0.785436 0.371016 1.852505
v 0.629061 0.120528 1.216467
v 0.839978 -0.110628 1.145478
v 0.839978 0.351685 1.270943
v 1.050895 0.120528 1.199954
v 1.067711 -0.130358 1.255656
v 1.067711 0.366849 1.384139
v 0.603503 -0.130358 1.261577
v 0.603503 0.366849 1.390059
v 0.436417 0.115055 1.672520
v 1.154573 0.118285 1.316737
v 1.170689 0.115055 1.707688
v 0.778799 0.115093 1.886283
v 0.803553 -0.249090 1.642519
v 0.803553 0.479199 1.737689
v 0.841133 0.121363 1.169822
v 0.835661 -0.223519 1.232653
v 0.835661 0.460089 1.409455
v 0.516749 0.118285 1.325371
v 0.460227 -0.202779 0.747252
v 0.460227 -0.202779 1.172049
v 0.413721 0.148865 0.713283
v 0.413721 0.148865 1.252867
v 0.885024 -0.202779 0.747252
v 0.885024 -0.202779 1.172049
v 0.953305 0.148865 0.713283
v 0.953305 0.148865 1.252867
v 0.549440 0.457803 1.214546
v 0.549440 0.457803 0.870187
v 0.893800 0.457803 0.870187
v 0.893800 0.457803 1.214546
v 0.404591 -0.066452 0.695458
v 0.413682 -0.229712 0.958987
v 0.404591 -0.066452 1.234248
v 0.312549 0.148865 0.983075
v 0.683513 0.148865 0.612111
v 0.683513 0.148865 1.354039
v 1.054477 0.148865 0.983075
v 0.943381 -0.066452 0.695458
v 0.943381 -0.066452 1.234248
v 0.931568 -0.229712 0.958987
v 0.672625 -0.229712 0.700044
v 0.672625 -0.229712 1.217930
v 0.519416 0.479122 1.047745
v 0.725199 0.479122 0.841962
v 0.725199 0.479122 1.253529
v 0.930982 0.479122 1.047745
v 0.939857 0.346072 0.781234
v 0.939857 0.346072 1.251782
v 0.469309 0.346072 0.781234
v 0.469309 0.346072 1.251782
v 0.303282 -0.069108 0.964787
v 1.027787 0.348174 1.017038
v 1.044691 -0.069108 0.964787
v 0.672625 -0.286235 0.957596
v 0.673986 -0.069108 0.594083
v 0.673986 -0.069108 1.335492
v 0.732709 0.523861 1.059033
v 0.704936 0.348174 0.694186
v 0.704936 0.348174 1.339890
v 0.382084 0.348174 1.017038
vn -0.5319 -0.5348 0.6565
vn -0.6504 -0.0022 0.7596
vn -0.9805 0.0002 0.1966
vn -0.6941 -0.6937 0.1922
vn -0.5290 0.5261 0.6659
vn -0.6916 0.6919 0.2074
vn -0.6995 0.7000 -0.1438
vn -0.9893 0.0004 -0.1460
vn -0.6989 -0.6983 -0.1547
vn 0.6995 0.7000 -0.1438
vn 0.9893 0.0004 -0.1460
vn 0.9102 0.0008 -0.4143
vn 0.6413 0.6422 -0.4199
vn 0.6989 -0.6983 -0.1547
vn 0.6406 -0.6396 -0.4249
vn 0.4864 -0.4861 -0.7260
vn 0.5857 0.0001 -0.8105
vn 0.4866 0.4869 -0.7254
vn 0.9805 0.0002 0.1966
vn 0.6941 -0.6937 0.1922
vn 0.6916 0.6919 0.2074
vn 0.5290 0.5261 0.6659
vn 0.6504 -0.0022 0.7596
vn 0.5319 -0.5348 0.6565
vn -0.0000 -0.0019 1.0000
vn -0.0000 -0.6564 0.7544
vn -0.0000 0.6443 0.7648
vn -0.0000 -0.9881 -0.1537
vn -0.0000 -0.9826 0.1855
vn -0.0000 0.9904 -0.1383
vn -0.0000 0.9782 0.2076
vn -0.4864 -0.4861 -0.7260
vn -0.5857 0.0001 -0.8105
vn -0.0000 -0.0000 -1.0000
vn -0.0000 -0.5852 -0.8109
vn -0.4866 0.4869 -0.7254
vn -0.0000 0.5861 -0.8102
vn -0.0000 -0.9085 -0.4178
vn -0.6406 -0.6396 -0.4249
vn -0.0000 0.9118 -0.4107
vn -0.6413 0.6422 -0.4199
vn -0.9102 0.0008 -0.4143
vn -0.5182 -0.5221 0.6774
vn -0.6401 -0.0582 0.7661
vn -0.9881 -0.0091 0.1536
vn -0.6989 -0.6928 0.1776
vn -0.5161 0.4038 0.7554
vn -0.7058 0.6666 0.2398
vn -0.6817 0.7141 -0.1590
vn -0.9764 0.0369 -0.2130
vn -0.7149 -0.6786 -0.1685
vn 0.7127 0.7010 -0.0266
vn 0.9994 0.0072 -0.0349
vn 0.9222 0.0783 -0.3787
vn 0.6360 0.6852 -0.3549
vn 0.7195 -0.6928 -0.0483
vn 0.6850 -0.5807 -0.4399
vn 0.4348 -0.2294 -0.8708
vn 0.5022 0.2030 -0.8406
vn 0.3971 0.5499 -0.7348
vn 0.9399 -0.0324 0.3400
vn 0.6546 -0.6940 0.2996
vn 0.6662 0.6436 0.3769
vn 0.3996 0.3909 0.8292
vn 0.5113 -0.0685 0.8567
vn 0.4123 -0.5213 0.7472
vn -0.0628 -0.0706 0.9955
vn -0.0498 -0.6261 0.7781
vn -0.0573 0.5007 0.8637
vn 0.0017 -0.9964 -0.0842
vn -0.0156 -0.9699 0.2429
vn 0.0091 0.9981 -0.0610
vn -0.0193 0.9413 0.3371
vn -0.4394 -0.2039 -0.8749
vn -0.4959 0.2081 -0.8430
vn -0.0326 0.2531 -0.9669
vn -0.0183 -0.3246 -0.9457
vn -0.3977 0.5354 -0.7451
vn -0.0170 0.6387 -0.7693
vn 0.0004 -0.8763 -0.4818
vn -0.6623 -0.5526 -0.5060
vn 0.0058 0.9333 -0.3591
vn -0.5995 0.6792 -0.4234
vn -0.8733 0.0998 -0.4768
vn -0.4795 -0.7319 -0.4841
vn -0.5870 -0.8096 -0.0039
vn -0.9704 -0.2412 -0.0077
vn -0.6885 -0.2177 -0.6918
vn -0.4742 -0.7467 0.4664
vn -0.6847 -0.2889 0.6691
vn -0.7117 0.0857 0.6972
vn -0.9831 0.1831 -0.0047
vn -0.6864 0.2406 -0.6862
vn 0.7085 -0.0197 0.7054
vn 0.9990 0.0449 -0.0082
vn 0.9402 0.3406 0.0084
vn 0.6785 0.2751 0.6811
vn 0.6932 0.1525 -0.7044
vn 0.6362 0.4667 -0.6144
vn 0.4486 0.7997 -0.3991
vn 0.5754 0.8175 0.0248
vn 0.4852 0.7188 0.4980
vn 0.9573 -0.2889 -0.0081
vn 0.6771 -0.2503 -0.6920
vn 0.6712 -0.3231 0.6672
vn 0.4697 -0.7502 0.4653
vn 0.5817 -0.8134 -0.0038
vn 0.4751 -0.7355 -0.4831
vn -0.0000 -1.0000 -0.0015
vn -0.0009 -0.8030 -0.5959
vn -0.0008 -0.8197 0.5729
vn -0.0034 0.2270 -0.9739
vn -0.0045 -0.2137 -0.9769
vn -0.0069 -0.0063 1.0000
vn -0.0049 -0.3169 0.9484
vn -0.3844 0.8432 -0.3757
vn -0.4862 0.8736 0.0191
vn 0.0100 0.9998 0.0150
vn 0.0118 0.8852 -0.4650
vn -0.4202 0.7738 0.4739
vn 0.0175 0.8004 0.5992
vn 0.0081 0.5466 -0.8373
vn -0.5856 0.5670 -0.5793
vn 0.0038 0.2876 0.9578
vn -0.6377 0.4036 0.6561
vn -0.8620 0.5067 0.0126
vt 0.375000 0.000000
vt 0.375000 1.000000
vt 0.125000 0.750000
vt 0.625000 0.000000
vt 0.625000 1.000000
vt 0.875000 0.750000
vt 0.125000 0.500000
vt 0.375000 0.250000
vt 0.875000 0.500000
vt 0.625000 0.250000
vt 0.375000 0.750000
vt 0.625000 0.750000
vt 0.375000 0.541667
vt 0.625000 0.541667
vt 0.875000 0.500000
vt 0.625000 0.250000
vt 0.125000 0.500000
vt 0.375000 0.250000
vt 0.375000 0.500000
vt 0.625000 0.500000
vt 0.375000 0.125000
vt 0.125000 0.625000
vt 0.500000 0.000000
vt 0.500000 1.000000
vt 0.625000 0.125000
vt 0.875000 0.625000
vt 0.500000 0.215278
vt 0.250000 0.538194
vt 0.750000 0.538194
vt 0.500000 0.541667
vt 0.375000 0.630208
vt 0.625000 0.630208
vt 0.500000 0.750000
vt 0.375000 0.875000
vt 0.250000 0.750000
vt 0.625000 0.875000
vt 0.750000 0.750000
vt 0.500000 0.284722
vt 0.375000 0.375000
vt 0.250000 0.500000
vt 0.625000 0.375000
vt 0.750000 0.500000
vt 0.500000 0.465278
vt 0.375000 0.504340
vt 0.625000 0.504340
vt 0.125000 0.500000
vt 0.375000 0.250000
vt 0.875000 0.500000
vt 0.625000 0.250000
vt 0.500000 0.121528
vt 0.500000 0.501736
vt 0.500000 0.630208
vt 0.500000 0.875000
vt 0.250000 0.629340
vt 0.750000 0.629340
vt 0.500000 0.375000
vt 0.250000 0.504340
vt 0.750000 0.504340
vt 0.500000 0.250000
vt 0.375000 0.000000
vt 0.375000 1.000000
vt 0.125000 0.750000
vt 0.625000 0.000000
vt 0.625000 1.000000
vt 0.875000 0.750000
vt 0.125000 0.500000
vt 0.375000 0.250000
vt 0.875000 0.500000
vt 0.625000 0.250000
vt 0.375000 0.750000
vt 0.625000 0.750000
vt 0.375000 0.541667
vt 0.625000 0.541667
vt 0.875000 0.500000
vt 0.625000 0.250000
vt 0.125000 0.500000
vt 0.375000 0.250000
vt 0.375000 0.500000
vt 0.625000 0.500000
vt 0.375000 0.125000
vt 0.125000 0.625000
vt 0.500000 0.000000
vt 0.500000 1.000000
vt 0.625000 0.125000
vt 0.875000 0.625000
vt 0.500000 0.215278
vt 0.250000 0.538194
vt 0.750000 0.538194
vt 0.500000 0.541667
vt 0.375000 0.630208
vt 0.625000 0.630208
vt 0.500000 0.750000
vt 0.375000 0.875000
vt 0.250000 0.750000
vt 0.625000 0.875000
vt 0.750000 0.750000
vt 0.500000 0.284722
vt 0.375000 0.375000
vt 0.250000 0.500000
vt 0.625000 0.375000
vt 0.750000 0.500000
vt 0.500000 0.465278
vt 0.375000 0.504340
vt 0.625000 0.504340
vt 0.125000 0.500000
vt 0.375000 0.250000
vt 0.875000 0.500000
vt 0.625000 0.250000
vt 0.500000 0.121528
vt 0.500000 0.501736
vt 0.500000 0.630208
vt 0.500000 0.875000
vt 0.250000 0.629340
vt 0.750000 0.629340
vt 0.500000 0.375000
vt 0.250000 0.504340
vt 0.750000 0.504340
vt 0.500000 0.250000
vt 0.375000 0.000000
vt 0.375000 1.000000
vt 0.125000 0.750000
vt 0.625000 0.000000
vt 0.625000 1.000000
vt 0.875000 0.750000
vt 0.125000 0.500000
vt 0.375000 0.250000
vt 0.875000 0.500000
vt 0.625000 0.250000
vt 0.375000 0.750000
vt 0.625000 0.750000
vt 0.375000 0.541667
vt 0.625000 0.541667
vt 0.875000 0.500000
vt 0.625000 0.250000
vt 0.125000 0.500000
vt 0.375000 0.250000
vt 0.375000 0.500000
vt 0.625000 0.500000
vt 0.375000 0.125000
vt 0.125000 0.625000
vt 0.500000 0.000000
vt 0.500000 1.000000
vt 0.625000 0.125000
vt 0.875000 0.625000
vt 0.500000 0.215278
vt 0.250000 0.538194
vt 0.750000 0.538194
vt 0.500000 0.541667
vt 0.375000 0.630208
vt 0.625000 0.630208
vt 0.500000 0.750000
vt 0.375000 0.875000
vt 0.250000 0.750000
vt 0.625000 0.875000
vt 0.750000 0.750000
vt 0.500000 0.284722
vt 0.375000 0.375000
vt 0.250000 0.500000
vt 0.625000 0.375000
vt 0.750000 0.500000
vt 0.500000 0.465278
vt 0.375000 0.504340
vt 0.625000 0.504340
vt 0.125000 0.500000
vt 0.375000 0.250000
vt 0.875000 0.500000
vt 0.625000 0.250000
vt 0.500000 0.121528
vt 0.500000 0.501736
vt 0.500000 0.630208
vt 0.500000 0.875000
vt 0.250000 0.629340
vt 0.750000 0.629340
vt 0.500000 0.375000
vt 0.250000 0.504340
vt 0.750000 0.504340
vt 0.500000 0.250000
s 1
usemtl rocks
f 1/1/1 14/23/2 33/50/3 13/21/4
f 14/23/2 2/4/5 15/25/6 33/50/3
f 33/50/3 15/25/6 4/10/7 16/27/8
f 13/21/4 33/50/3 16/27/8 3/8/9
f 8/14/10 19/30/11 34/51/12 30/45/13
f 19/30/11 7/13/14 29/44/15 34/51/12
f 34/51/12 29/44/15 11/19/16 28/43/17
f 30/45/13 34/51/12 28/43/17 12/20/18
f 7/13/14 19/30/11 35/52/19 20/31/20
f 19/30/11 8/14/10 21/32/21 35/52/19
f 35/52/19 21/32/21 6/12/22 22/33/23
f 20/31/20 35/52/19 22/33/23 5/11/24
f 5/11/24 22/33/23 36/53/25 23/34/26
f 22/33/23 6/12/22 24/36/27 36/53/25
f 36/53/25 24/36/27 2/5/5 14/24/2
f 23/34/26 36/53/25 14/24/2 1/2/1
f 3/7/9 17/28/28 37/54/29 13/22/4
f 17/28/28 7/13/14 20/31/20 37/54/29
f 37/54/29 20/31/20 5/11/24 23/35/26
f 13/22/4 37/54/29 23/35/26 1/3/1
f 8/14/10 18/29/30 38/55/31 21/32/21
f 18/29/30 4/9/7 15/26/6 38/55/31
f 38/55/31 15/26/6 2/6/5 24/37/27
f 21/32/21 38/55/31 24/37/27 6/12/22
f 10/18/32 25/38/33 39/56/34 26/39/35
f 25/38/33 9/16/36 27/41/37 39/56/34
f 39/56/34 27/41/37 12/20/18 28/43/17
f 26/39/35 39/56/34 28/43/17 11/19/16
f 7/13/14 17/28/28 40/57/38 29/44/15
f 17/28/28 3/7/9 31/46/39 40/57/38
f 40/57/38 31/46/39 10/17/32 26/40/35
f 29/44/15 40/57/38 26/40/35 11/19/16
f 4/9/7 18/29/30 41/58/40 32/48/41
f 18/29/30 8/14/10 30/45/13 41/58/40
f 41/58/40 30/45/13 12/20/18 27/42/37
f 32/48/41 41/58/40 27/42/37 9/15/36
f 3/8/9 16/27/8 42/59/42 31/47/39
f 16/27/8 4/10/7 32/49/41 42/59/42
f 42/59/42 32/49/41 9/16/36 25/38/33
f 31/47/39 42/59/42 25/38/33 10/18/32
f 43/60/43 56/82/44 75/109/45 55/80/46
f 56/82/44 44/63/47 57/84/48 75/109/45
f 75/109/45 57/84/48 46/69/49 58/86/50
f 55/80/46 75/109/45 58/86/50 45/67/51
f 50/73/52 61/89/53 76/110/54 72/104/55
f 61/89/53 49/72/56 71/103/57 76/110/54
f 76/110/54 71/103/57 53/78/58 70/102/59
f 72/104/55 76/110/54 70/102/59 54/79/60
f 49/72/56 61/89/53 77/111/61 62/90/62
f 61/89/53 50/73/52 63/91/63 77/111/61
f 77/111/61 63/91/63 48/71/64 64/92/65
f 62/90/62 77/111/61 64/92/65 47/70/66
f 47/70/66 64/92/65 78/112/67 65/93/68
f 64/92/65 48/71/64 66/95/69 78/112/67
f 78/112/67 66/95/69 44/64/47 56/83/44
f 65/93/68 78/112/67 56/83/44 43/61/43
f 45/66/51 59/87/70 79/113/71 55/81/46
f 59/87/70 49/72/56 62/90/62 79/113/71
f 79/113/71 62/90/62 47/70/66 65/94/68
f 55/81/46 79/113/71 65/94/68 43/62/43
f 50/73/52 60/88/72 80/114/73 63/91/63
f 60/88/72 46/68/49 57/85/48 80/114/73
f 80/114/73 57/85/48 44/65/47 66/96/69
f 63/91/63 80/114/73 66/96/69 48/71/64
f 52/77/74 67/97/75 81/115/76 68/98/77
f 67/97/75 51/75/78 69/100/79 81/115/76
f 81/115/76 69/100/79 54/79/60 70/102/59
f 68/98/77 81/115/76 70/102/59 53/78/58
f 49/72/56 59/87/70 82/116/80 71/103/57
f 59/87/70 45/66/51 73/105/81 82/116/80
f 82/116/80 73/105/81 52/76/74 68/99/77
f 71/103/57 82/116/80 68/99/77 53/78/58
f 46/68/49 60/88/72 83/117/82 74/107/83
f 60/88/72 50/73/52 72/104/55 83/117/82
f 83/117/82 72/104/55 54/79/60 69/101/79
f 74/107/83 83/117/82 69/101/79 51/74/78
f 45/67/51 58/86/50 84/118/84 73/106/81
f 58/86/50 46/69/49 74/108/83 84/118/84
f 84/118/84 74/108/83 51/75/78 67/97/75
f 73/106/81 84/118/84 67/97/75 52/77/74
f 85/119/85 98/141/86 117/168/87 97/139/88
f 98/141/86 86/122/89 99/143/90 117/168/87
f 117/168/87 99/143/90 88/128/91 100/145/92
f 97/139/88 117/168/87 100/145/92 87/126/93
f 92/132/94 103/148/95 118/169/96 114/163/97
f 103/148/95 91/131/98 113/162/99 118/169/96
f 118/169/96 113/162/99 95/137/100 112/161/101
f 114/163/97 118/169/96 112/161/101 96/138/102
f 91/131/98 103/148/95 119/170/103 104/149/104
f 103/148/95 92/132/94 105/150/105 119/170/103
f 119/170/103 105/150/105 90/130/106 106/151/107
f 104/149/104 119/170/103 106/151/107 89/129/108
f 89/129/108 106/151/107 120/171/109 107/152/110
f 106/151/107 90/130/106 108/154/111 120/171/109
f 120/171/109 108/154/111 86/123/89 98/142/86
f 107/152/110 120/171/109 98/142/86 85/120/85
f 87/125/93 101/146/112 121/172/113 97/140/88
f 101/146/112 91/131/98 104/149/104 121/172/113
f 121/172/113 104/149/104 89/129/108 107/153/110
f 97/140/88 121/172/113 107/153/110 85/121/85
f 92/132/94 102/147/114 122/173/115 105/150/105
f 102/147/114 88/127/91 99/144/90 122/173/115
f 122/173/115 99/144/90 86/124/89 108/155/111
f 105/150/105 122/173/115 108/155/111 90/130/106
f 94/136/116 109/156/117 123/174/118 110/157/119
f 109/156/117 93/134/120 111/159/121 123/174/118
f 123/174/118 111/159/121 96/138/102 112/161/101
f 110/157/119 123/174/118 112/161/101 95/137/100
f 91/131/98 101/146/112 124/175/122 113/162/99
f 101/146/112 87/125/93 115/164/123 124/175/122
f 124/175/122 115/164/123 94/135/116 110/158/119
f 113/162/99 124/175/122 110/158/119 95/137/100
f 88/127/91 102/147/114 125/176/124 116/166/125
f 102/147/114 92/132/94 114/163/97 125/176/124
f 125/176/124 114/163/97 96/138/102 111/160/121
f 116/166/125 125/176/124 111/160/121 93/133/120
f 87/126/93 100/145/92 126/177/126 115/165/123
f 100/145/92 88/128/91 116/167/125 126/177/126
f 126/177/126 116/167/125 93/134/120 109/156/117
f 115/165/123 126/177/126 109/156/117 94/136/116
