# Blender 3.3.1
# www.blender.org
mtllib shovel.mtl
o shovel
v 0.658310 0.611007 -0.793385
v 0.658310 0.350620 -0.793385
v 0.616579 0.611007 -0.779825
v 0.590788 0.350620 -0.744327
v 0.590788 0.611007 -0.744327
v 0.590788 0.611007 -0.700448
v 0.616579 0.350620 -0.664950
v 0.658310 0.704216 -0.651391
v 0.658310 0.915817 -0.651391
v 0.700041 0.690657 -0.664950
v 0.700041 0.915817 -0.664950
v 0.725832 0.611007 -0.700448
v 0.700041 0.575781 -0.664950
v 0.700041 0.350620 -0.664950
v 0.725832 0.350620 -0.744327
v 0.725832 0.611007 -0.744327
v 0.725832 0.350620 -0.700448
v 0.700041 0.350620 -0.779825
v 0.700041 0.611007 -0.779825
v 0.725832 0.915817 -0.700448
v 0.590788 0.656713 -0.700448
v 0.616579 0.690657 -0.664950
v 0.725832 0.611280 0.951487
v 0.725832 0.655158 0.951487
v 0.700041 0.690657 0.951487
v 0.700041 0.575781 0.951487
v 0.658310 0.562222 -0.651391
v 0.616579 0.575781 -0.664950
v 0.616579 0.575781 0.951487
v 0.658310 0.350620 -0.651391
v 0.700041 0.915817 -0.779825
v 0.700041 0.656713 -0.779825
v 0.658310 0.656713 -0.793385
v 0.725832 0.915817 -0.744327
v 0.725832 0.656713 -0.744327
v 0.725832 0.656713 -0.700448
v 0.590788 0.656713 -0.744327
v 0.590788 0.915817 -0.700448
v 0.616579 0.915817 -0.779825
v 0.616579 0.656713 -0.779825
v 0.616579 0.350620 -0.779825
v 0.590788 0.350620 -0.700448
v 0.658310 0.915817 -0.793385
v 0.616579 0.915817 -0.664950
v 0.590788 0.915817 -0.744327
v 0.709205 0.542683 0.888193
v 0.619632 0.542683 1.179749
v 0.700226 0.633208 1.476854
v 0.666898 0.633208 1.638539
v 0.675582 0.588044 1.590205
v 0.682173 0.563859 1.445554
v 0.552412 0.633208 1.179749
v 0.701067 0.370360 1.513304
v 0.696458 0.389047 1.682396
v 0.670479 0.370360 1.513304
v 0.692965 0.635098 1.896388
v 0.699940 0.877526 1.680971
v 0.631744 0.563859 1.445554
v 0.638336 0.588044 1.590205
v 0.647480 0.634323 1.638539
v 0.613976 0.633930 1.476854
v 0.709205 0.723732 0.888193
v 0.638336 0.678371 1.590205
v 0.631744 0.702556 1.445554
v 0.681187 0.636213 1.896388
v 0.694286 0.723732 1.179749
v 0.761469 0.633208 1.179749
v 0.761469 0.633208 0.888193
v 0.672734 0.896157 1.512381
v 0.677348 0.877526 1.680971
v 0.703323 0.896157 1.512381
v 0.694286 0.542683 1.179749
v 0.682173 0.702556 1.445554
v 0.675582 0.678371 1.590205
v 0.552412 0.633208 0.888193
v 0.604676 0.723732 0.888193
v 0.679620 0.450148 1.189975
v 0.634338 0.450148 1.189975
v 0.672422 0.784715 1.475478
v 0.668505 0.767545 1.630848
v 0.634845 0.814130 1.209313
v 0.634338 0.816267 1.189975
v 0.619632 0.723732 1.179749
v 0.620452 0.722298 1.197752
v 0.663012 0.634054 1.774909
v 0.668046 0.498941 1.631486
v 0.641536 0.481746 1.475891
v 0.645454 0.498941 1.631486
v 0.651234 0.635170 1.774910
v 0.679620 0.816267 1.189975
v 0.716668 0.816266 1.190493
v 0.716668 0.723732 1.180266
v 0.645914 0.767545 1.630848
v 0.664255 0.336022 1.202587
v 0.664255 0.930393 1.202587
v 0.673866 0.389047 1.682396
v 0.709117 0.928075 1.223570
v 0.679133 0.814130 1.209313
v 0.716668 0.814129 1.209831
v 0.716668 0.928074 1.224088
v 0.672125 0.481746 1.475891
v 0.634825 0.452288 1.209341
v 0.641834 0.784715 1.475478
v 0.620452 0.544117 1.197752
v 0.757321 0.633208 1.199872
v 0.664830 0.928075 1.223570
v 0.556582 0.633257 1.199872
v 0.664677 0.338348 1.223633
v 0.709538 0.336022 1.202587
v 0.709538 0.930393 1.202587
v 0.716668 0.930393 1.203105
v 0.679112 0.452288 1.209341
v 0.716668 0.452288 1.209859
v 0.716668 0.450148 1.190493
v 0.716668 0.542683 1.180266
v 0.716668 0.544117 1.198270
v 0.716668 0.338347 1.224151
v 0.716668 0.336021 1.203105
v 0.716668 0.722297 1.198270
v 0.693466 0.544117 1.197752
v 0.693466 0.722298 1.197752
v 0.708964 0.338348 1.223633
v 0.604676 0.542683 0.888193
v 0.658310 0.704216 0.951487
v 0.658310 0.562222 0.951487
v 0.616579 0.690657 0.951487
v 0.590788 0.611280 0.951487
v 0.590788 0.655158 0.951487
vn -0.0000 -0.0000 -1.0000
vn -0.0000 -0.6437 -0.7653
vn -0.4498 -0.6437 -0.6191
vn -0.5878 -0.0000 -0.8090
vn -0.7278 -0.6437 -0.2365
vn -0.9511 -0.0000 -0.3090
vn -0.7278 -0.6437 0.2365
vn -0.9928 -0.0847 0.0848
vn -0.4498 -0.6437 0.6191
vn -0.7770 -0.4458 0.4444
vn -0.4498 0.6437 0.6191
vn -0.7752 0.4502 0.4432
vn -0.0000 0.7071 0.7071
vn -0.0000 0.6437 0.7653
vn 0.7752 0.4501 0.4432
vn 0.4498 0.6437 0.6191
vn 0.9928 -0.0847 0.0848
vn 0.7771 -0.4456 0.4444
vn 0.4498 -0.6437 0.6191
vn 0.7278 -0.6437 0.2365
vn 0.7278 -0.6437 -0.2365
vn 0.9511 -0.0000 -0.3090
vn 0.4498 -0.6437 -0.6191
vn 0.5878 -0.0000 -0.8090
vn 0.7278 0.6437 0.2365
vn 0.7278 0.6437 -0.2365
vn 0.4498 0.6437 -0.6191
vn -0.7278 -0.2365 0.6437
vn -0.7261 0.2399 0.6444
vn -0.9927 0.0845 0.0865
vn -0.4469 0.6218 0.6432
vn 0.9927 0.0844 0.0865
vn 0.7261 0.2399 0.6444
vn 0.7278 -0.2365 0.6437
vn 0.4468 0.6218 0.6432
vn 0.4492 -0.6197 0.6436
vn -0.0000 -0.7071 0.7071
vn -0.0000 -0.6437 0.7653
vn -0.0000 0.7653 0.6437
vn -0.0000 -0.7653 0.6437
vn -0.4498 -0.6191 0.6437
vn -0.0000 0.6437 -0.7653
vn -0.7278 0.6437 -0.2365
vn -0.7278 0.6437 0.2365
vn -0.4498 0.6437 -0.6191
vn 0.3882 -0.6991 -0.6005
vn 0.5676 -0.4742 -0.6730
vn -0.7173 -0.6685 -0.1962
vn -0.3883 -0.6991 -0.6004
vn 0.9894 -0.0000 0.1454
vn 0.9964 -0.0011 0.0844
vn 0.9912 -0.0955 0.0914
vn 0.9656 -0.2436 0.0911
vn -0.9962 -0.0003 0.0877
vn -0.7911 -0.0000 -0.6117
vn 0.7903 -0.6064 0.0883
vn 0.6999 -0.6267 0.3424
vn -0.5601 -0.7298 0.3921
vn -0.6163 -0.7811 0.1000
vn -0.5154 0.0367 0.8562
vn 0.6362 -0.0332 0.7708
vn 0.7185 0.6115 0.3313
vn -0.5420 0.7435 0.3917
vn -0.7172 0.6686 -0.1964
vn -0.3882 0.6991 -0.6004
vn -0.9665 -0.2400 0.0912
vn -0.9919 -0.0886 0.0911
vn -0.9964 0.0015 0.0852
vn -0.9893 0.0024 0.1456
vn 0.5676 0.4742 -0.6730
vn 0.3882 0.6991 -0.6005
vn -0.9913 0.0937 0.0920
vn -0.9655 0.2438 0.0912
vn 0.9962 -0.0000 0.0874
vn 0.7911 -0.0001 -0.6117
vn -0.6104 0.7853 0.1033
vn 0.7947 0.6011 0.0842
vn 0.9659 0.2423 0.0907
vn 0.9915 0.0933 0.0909
vn 0.0087 -0.1095 -0.9939
vn -0.7117 -0.2221 -0.6664
vn 0.9963 -0.0836 0.0197
vn 0.9901 -0.1347 -0.0404
vn -0.9797 0.1940 0.0510
vn -0.7127 0.2226 -0.6653
vn -0.9342 0.3451 0.0907
vn 0.9906 -0.0065 -0.1364
vn 0.9917 0.1232 -0.0374
vn -0.9845 -0.1690 0.0473
vn -0.9854 -0.1358 0.1028
vn -0.9827 0.0075 0.1853
vn 0.0087 0.1095 -0.9939
vn 0.7142 0.0763 -0.6957
vn 0.5804 -0.5226 -0.6245
vn -0.9833 0.1480 0.1057
vn 0.0070 -0.7719 -0.6357
vn -0.4993 -0.6984 -0.5128
vn -0.6113 0.7846 0.1034
vn -0.5010 0.6977 -0.5121
vn 0.0071 0.7719 -0.6357
vn 0.2978 0.8298 0.4720
vn 0.7312 -0.1310 0.6694
vn 0.7000 -0.0883 0.7086
vn 0.5737 0.4958 0.6520
vn 0.9968 0.0760 0.0229
vn -0.6126 -0.7840 0.1003
vn -0.9803 -0.1917 0.0484
vn -0.9830 0.1766 0.0505
vn -0.9347 -0.3437 0.0911
vn 0.8932 0.0232 0.4491
vn 0.9883 -0.0000 0.1527
vn -0.9882 0.0011 0.1532
vn 0.2978 -0.8294 0.4726
vn 0.8931 -0.0236 0.4493
vn 0.5759 0.6499 -0.4959
vn 0.7308 0.1277 0.6706
vn 0.7000 0.0886 0.7086
vn 0.7143 -0.0763 -0.6957
vn 0.5805 0.5225 -0.6245
vn 0.5762 0.6304 0.5201
vn 0.5735 -0.4960 0.6520
vn 0.5759 -0.6500 -0.4959
vn 0.5763 -0.6303 0.5202
vt 0.203468 0.155896
vt 0.343143 0.155896
vt 0.892047 0.137066
vt 0.203468 0.132359
vt 0.343143 0.108822
vt 0.905881 0.179645
vt 0.203468 0.108822
vt 0.047719 0.929578
vt 0.203468 0.085285
vt 0.343143 0.061748
vt 0.869661 0.205960
vt 0.153470 0.038210
vt 0.153470 0.273582
vt 0.074030 0.858656
vt 0.039963 0.038210
vt 0.039963 0.273582
vt 0.907930 0.039476
vt 0.066757 0.835118
vt 0.160743 0.250045
vt 0.039963 0.250045
vt 0.894095 0.058518
vt 0.047719 0.787734
vt 0.203468 0.226508
vt 0.222364 0.250045
vt 0.066766 0.764319
vt 0.343143 0.250045
vt 0.833442 0.179645
vt 0.847276 0.137066
vt 0.343143 0.202970
vt 0.203468 0.202970
vt 0.343143 0.226508
vt 0.833442 0.156108
vt 0.343143 0.179433
vt 0.869661 0.129792
vt 0.203468 0.179433
vt 0.894095 0.082055
vt 0.039963 0.226508
vt 0.047714 0.905061
vt 0.178951 0.085285
vt 0.066757 0.882193
vt 0.160743 0.061747
vt 0.851306 0.081891
vt 0.933846 0.788045
vt 0.851306 0.058354
vt 0.933841 0.811582
vt 0.933841 0.835121
vt 0.837471 0.039312
vt 0.933851 0.764507
vt 0.837471 0.100933
vt 0.229637 0.273582
vt 0.074044 0.740784
vt 0.074045 0.976529
vt 0.229637 0.038210
vt 0.066766 0.952993
vt 0.222364 0.061748
vt 0.933851 0.952804
vt 0.792701 0.100933
vt 0.343143 0.273582
vt 0.343143 0.038211
vt 0.847276 0.198687
vt 0.039963 0.179433
vt 0.930315 0.108370
vt 0.178951 0.179433
vt 0.178951 0.155896
vt 0.907930 0.101097
vt 0.039963 0.202970
vt 0.178951 0.202970
vt 0.047715 0.812250
vt 0.178951 0.226507
vt 0.178951 0.108822
vt 0.039963 0.085285
vt 0.952700 0.039476
vt 0.039963 0.132359
vt 0.966535 0.082055
vt 0.178951 0.132359
vt 0.343143 0.132359
vt 0.905881 0.156108
vt 0.343143 0.085285
vt 0.892047 0.198687
vt 0.039963 0.155896
vt 0.952700 0.101097
vt 0.039963 0.061748
vt 0.930315 0.032203
vt 0.039963 0.108822
vt 0.966535 0.058518
vt 0.535450 0.236873
vt 0.110236 0.330873
vt 0.409325 0.210415
vt 0.690695 0.185228
vt 0.666270 0.337883
vt 0.359074 0.534337
vt 0.437338 0.577542
vt 0.426225 0.543544
vt 0.365162 0.492176
vt 0.690551 0.124746
vt 0.723938 0.319133
vt 0.451870 0.419879
vt 0.524255 0.475223
vt 0.462166 0.407142
vt 0.619944 0.535404
vt 0.462356 0.407234
vt 0.557725 0.645278
vt 0.396246 0.705655
vt 0.714440 0.473951
vt 0.745107 0.547764
vt 0.774861 0.568599
vt 0.756914 0.480767
vt 0.535450 0.012620
vt 0.054298 0.432214
vt 0.408793 0.113299
vt 0.793011 0.538074
vt 0.792683 0.458167
vt 0.559636 0.651268
vt 0.563973 0.644573
vt 0.803425 0.704693
vt 0.691619 0.024229
vt 0.791140 0.274020
vt 0.192037 0.509649
vt 0.781544 0.259915
vt 0.216411 0.455589
vt 0.081734 0.381250
vt 0.381024 0.162011
vt 0.305710 0.689373
vt 0.305882 0.689483
vt 0.903858 0.477766
vt 0.400692 0.716809
vt 0.392246 0.717073
vt 0.908769 0.568302
vt 0.311126 0.673915
vt 0.691619 0.225263
vt 0.249165 0.406155
vt 0.647902 0.286866
vt 0.644520 0.303585
vt 0.326643 0.561956
vt 0.402646 0.586253
vt 0.534156 0.124746
vt 0.493164 0.161397
vt 0.534156 0.068676
vt 0.464863 0.112993
vt 0.607114 0.337255
vt 0.620279 0.357008
vt 0.321274 0.609338
vt 0.399792 0.638911
vt 0.834519 0.324149
vt 0.834184 0.313886
vt 0.690695 0.064264
vt 0.784372 0.314071
vt 0.784808 0.323784
vt 0.499869 0.612610
vt 0.469595 0.513272
vt 0.674958 0.500724
vt 0.703052 0.579965
vt 0.789640 0.639501
vt 0.838672 0.290575
vt 0.842400 0.271253
vt 0.793352 0.262192
vt 0.844225 0.551118
vt 0.335266 0.297492
vt 0.561237 0.378589
vt 0.896983 0.310918
vt 0.145802 0.640358
vt 0.531860 0.465816
vt 0.536060 0.473031
vt 0.650634 0.620969
vt 0.905555 0.268215
vt 0.164238 0.621146
vt 0.908769 0.273274
vt 0.185175 0.560936
vt 0.847849 0.241211
vt 0.844367 0.261036
vt 0.904852 0.272210
vt 0.402589 0.462507
vt 0.623953 0.366611
vt 0.839455 0.467334
vt 0.669630 0.347006
vt 0.225832 0.460790
vt 0.156645 0.643686
vt 0.897583 0.322163
vt 0.726146 0.329974
vt 0.343874 0.304925
vt 0.565068 0.389211
vt 0.319742 0.316211
vt 0.547510 0.358481
vt 0.542326 0.357702
vt 0.153566 0.617312
vt 0.901851 0.287060
vt 0.906328 0.284333
vt 0.902632 0.283313
vt 0.288917 0.373024
vt 0.579528 0.295277
vt 0.590415 0.312218
vt 0.596193 0.320887
vt 0.637899 0.293539
vt 0.632332 0.285596
vt 0.538974 0.345926
vt 0.545339 0.355330
vt 0.795408 0.252712
vt 0.256950 0.411744
vt 0.625671 0.275051
vt 0.642695 0.278671
vt 0.200916 0.513258
vt 0.783170 0.250341
vt 0.797470 0.240409
vt 0.328692 0.323232
vt 0.535707 0.348471
vt 0.536735 0.342446
vt 0.534156 0.180817
vt 0.465395 0.210109
vt 0.933841 0.858657
vt 0.815086 0.032039
vt 0.933856 0.740972
vt 0.933856 0.976340
vt 0.815086 0.108207
vt 0.933841 0.882193
vt 0.792700 0.039312
vt 0.933846 0.929267
vt 0.778866 0.081891
vt 0.933841 0.905730
vt 0.778866 0.058354
s 1
usemtl wood.001
f 1/1/1 2/2/2 41/76/3
f 1/1/1 41/76/3 3/4/4
f 3/4/4 41/76/3 4/5/5
f 3/4/4 4/5/5 5/7/6
f 5/7/6 4/5/5 42/78/7
f 5/7/6 42/78/7 6/9/8
f 6/9/8 42/78/7 7/10/9
f 6/9/8 7/10/9 28/55/10
f 44/82/11 22/41/12 8/12/13
f 44/82/11 8/12/13 9/15/14
f 9/16/14 8/13/13 10/19/15
f 9/16/14 10/19/15 11/20/16
f 12/23/17 13/24/18 14/26/19
f 12/23/17 14/26/19 17/31/20
f 12/23/17 17/31/20 15/29/21
f 12/23/17 15/29/21 16/30/22
f 17/32/20 14/27/19 18/34/23
f 17/32/20 18/34/23 15/28/21
f 16/30/22 15/29/21 18/33/23
f 16/30/22 18/33/23 19/35/24
f 19/35/24 18/33/23 2/2/2
f 19/35/24 2/2/2 1/1/1
f 11/21/16 20/36/25 34/65/26
f 11/21/16 34/65/26 31/62/27
f 6/8/8 127/216/28 128/218/29
f 6/8/8 128/218/29 21/38/30
f 21/38/30 128/218/29 126/214/31
f 21/38/30 126/214/31 22/40/12
f 36/68/32 24/45/33 23/43/34
f 36/68/32 23/43/34 12/22/17
f 24/44/33 25/47/35 26/49/36
f 24/44/33 26/49/36 23/42/34
f 12/22/17 23/43/34 26/48/36
f 12/22/17 26/48/36 13/25/18
f 13/24/18 27/50/37 30/58/38
f 13/24/18 30/58/38 14/26/19
f 10/18/15 8/14/13 124/209/39
f 10/18/15 124/209/39 25/46/35
f 27/51/37 13/25/18 26/48/36
f 27/51/37 26/48/36 125/211/40
f 36/68/32 10/18/15 25/46/35
f 36/68/32 25/46/35 24/45/33
f 8/14/13 22/40/12 126/214/31
f 8/14/13 126/214/31 124/209/39
f 6/8/8 28/54/10 29/56/41
f 6/8/8 29/56/41 127/216/28
f 28/54/10 27/52/37 125/212/40
f 28/54/10 125/212/40 29/56/41
f 27/53/37 28/55/10 7/10/9
f 27/53/37 7/10/9 30/59/38
f 31/61/27 32/63/24 33/64/1
f 31/61/27 33/64/1 43/80/42
f 34/66/26 35/67/22 32/63/24
f 34/66/26 32/63/24 31/61/27
f 20/37/25 36/69/32 35/67/22
f 20/37/25 35/67/22 34/66/26
f 45/84/43 37/70/6 21/39/30
f 45/84/43 21/39/30 38/71/44
f 39/73/45 40/75/4 37/70/6
f 39/73/45 37/70/6 45/84/43
f 43/80/42 33/64/1 40/75/4
f 43/80/42 40/75/4 39/73/45
f 32/63/24 19/35/24 1/1/1
f 32/63/24 1/1/1 33/64/1
f 35/67/22 16/30/22 19/35/24
f 35/67/22 19/35/24 32/63/24
f 36/69/32 12/23/17 16/30/22
f 36/69/32 16/30/22 35/67/22
f 37/70/6 5/7/6 6/9/8
f 37/70/6 6/9/8 21/39/30
f 40/75/4 3/4/4 5/7/6
f 40/75/4 5/7/6 37/70/6
f 33/64/1 1/1/1 3/4/4
f 33/64/1 3/4/4 40/75/4
f 38/71/44 21/39/30 22/41/12
f 38/71/44 22/41/12 44/82/11
f 11/20/16 10/19/15 36/69/32
f 11/20/16 36/69/32 20/37/25
f 14/27/19 30/60/38 2/3/2
f 14/27/19 2/3/2 18/34/23
f 41/77/3 2/3/2 30/60/38
f 41/77/3 30/60/38 7/11/9
f 4/6/5 41/77/3 7/11/9
f 4/6/5 7/11/9 42/79/7
f 9/17/14 11/21/16 31/62/27
f 9/17/14 31/62/27 43/81/42
f 43/81/42 39/74/45 44/83/11
f 43/81/42 44/83/11 9/17/14
f 39/74/45 45/85/43 38/72/44
f 39/74/45 38/72/44 44/83/11
f 25/47/35 124/210/39 125/213/40
f 25/47/35 125/213/40 26/49/36
f 29/57/41 125/213/40 124/210/39
f 29/57/41 124/210/39 126/215/31
f 127/217/28 29/57/41 126/215/31
f 127/217/28 126/215/31 128/219/29
usemtl Metal2
f 46/86/46 72/130/47 47/89/48
f 46/86/46 47/89/48 123/207/49
f 48/91/50 49/92/51 50/93/52
f 48/91/50 50/93/52 51/94/53
f 123/207/49 47/89/48 52/95/54
f 123/207/49 52/95/54 75/136/55
f 53/97/56 54/98/57 96/162/58
f 53/97/56 96/162/58 55/99/59
f 65/113/60 56/102/61 57/103/62
f 65/113/60 57/103/62 70/126/63
f 75/136/55 52/95/54 83/146/64
f 75/136/55 83/146/64 76/138/65
f 58/104/66 59/105/67 60/106/68
f 58/104/66 60/106/68 61/107/69
f 76/138/65 83/146/64 66/116/70
f 76/138/65 66/116/70 62/108/71
f 61/107/69 60/106/68 63/111/72
f 61/107/69 63/111/72 64/112/73
f 54/98/57 56/102/61 65/114/60
f 54/98/57 65/114/60 96/163/58
f 62/109/71 66/118/70 67/120/74
f 62/109/71 67/120/74 68/121/75
f 69/123/76 70/127/63 57/103/62
f 69/123/76 57/103/62 71/129/77
f 68/121/75 67/120/74 72/131/47
f 68/121/75 72/131/47 46/87/46
f 73/134/78 74/135/79 49/92/51
f 73/134/78 49/92/51 48/91/50
f 75/137/55 76/139/65 62/110/71
f 75/137/55 62/110/71 68/122/75
f 77/140/80 78/141/81 47/90/48
f 77/140/80 47/90/48 72/133/47
f 79/142/82 80/143/83 74/135/79
f 79/142/82 74/135/79 73/134/78
f 81/144/84 82/145/85 83/147/64
f 81/144/84 83/147/64 84/148/86
f 85/149/87 86/150/88 50/93/52
f 85/149/87 50/93/52 49/92/51
f 87/151/89 88/152/90 59/105/67
f 87/151/89 59/105/67 58/104/66
f 88/152/90 89/153/91 60/106/68
f 88/152/90 60/106/68 59/105/67
f 82/145/85 90/154/92 66/117/70
f 82/145/85 66/117/70 83/147/64
f 66/117/70 90/154/92 91/155/93
f 66/117/70 91/155/93 92/156/94
f 80/143/83 85/149/87 49/92/51
f 80/143/83 49/92/51 74/135/79
f 89/153/91 93/157/95 63/111/72
f 89/153/91 63/111/72 60/106/68
f 109/183/96 94/159/97 78/141/81
f 109/183/96 78/141/81 77/140/80
f 71/129/77 57/103/62 80/143/83
f 71/129/77 80/143/83 79/142/82
f 106/178/98 95/160/99 82/145/85
f 106/178/98 82/145/85 81/144/84
f 56/102/61 54/98/57 86/150/88
f 56/102/61 86/150/88 85/149/87
f 55/100/59 96/164/58 88/152/90
f 55/100/59 88/152/90 87/151/89
f 96/164/58 65/115/60 89/153/91
f 96/164/58 89/153/91 88/152/90
f 95/160/99 110/186/100 90/154/92
f 95/160/99 90/154/92 82/145/85
f 97/165/101 98/169/102 99/170/103
f 97/165/101 99/170/103 100/171/104
f 57/103/62 56/102/61 85/149/87
f 57/103/62 85/149/87 80/143/83
f 65/115/60 70/128/63 93/157/95
f 65/115/60 93/157/95 89/153/91
f 54/98/57 53/97/56 101/172/105
f 54/98/57 101/172/105 86/150/88
f 108/181/106 55/100/59 87/151/89
f 108/181/106 87/151/89 102/173/107
f 70/128/63 69/125/76 103/174/108
f 70/128/63 103/174/108 93/157/95
f 97/166/101 71/129/77 79/142/82
f 97/166/101 79/142/82 98/168/102
f 86/150/88 101/172/105 51/94/53
f 86/150/88 51/94/53 50/93/52
f 102/173/107 87/151/89 58/104/66
f 102/173/107 58/104/66 104/175/109
f 93/157/95 103/174/108 64/112/73
f 93/157/95 64/112/73 63/111/72
f 98/168/102 79/142/82 73/134/78
f 98/168/102 73/134/78 121/201/110
f 121/201/110 73/134/78 48/91/50
f 121/201/110 48/91/50 105/176/111
f 106/177/98 69/124/76 71/129/77
f 106/177/98 71/129/77 97/166/101
f 107/179/112 61/107/69 64/112/73
f 107/179/112 64/112/73 84/148/86
f 104/175/109 58/104/66 61/107/69
f 104/175/109 61/107/69 107/179/112
f 122/204/113 53/97/56 55/101/59
f 122/204/113 55/101/59 108/180/106
f 105/176/111 48/91/50 51/94/53
f 105/176/111 51/94/53 120/198/114
f 67/120/74 105/176/111 120/198/114
f 67/120/74 120/198/114 72/131/47
f 109/182/96 122/204/113 108/180/106
f 109/182/96 108/180/106 94/158/97
f 47/90/48 104/175/109 107/179/112
f 47/90/48 107/179/112 52/96/54
f 52/96/54 107/179/112 84/148/86
f 52/96/54 84/148/86 83/147/64
f 95/161/99 106/177/98 97/166/101
f 95/161/99 97/166/101 110/185/100
f 66/118/70 121/201/110 105/176/111
f 66/118/70 105/176/111 67/120/74
f 90/154/92 110/186/100 111/188/115
f 90/154/92 111/188/115 91/155/93
f 78/141/81 102/173/107 104/175/109
f 78/141/81 104/175/109 47/90/48
f 110/187/100 97/167/101 100/171/104
f 110/187/100 100/171/104 111/188/115
f 94/159/97 108/181/106 102/173/107
f 94/159/97 102/173/107 78/141/81
f 53/97/56 122/204/113 112/189/116
f 53/97/56 112/189/116 101/172/105
f 69/125/76 106/178/98 81/144/84
f 69/125/76 81/144/84 103/174/108
f 101/172/105 112/189/116 120/198/114
f 101/172/105 120/198/114 51/94/53
f 103/174/108 81/144/84 84/148/86
f 103/174/108 84/148/86 64/112/73
f 113/191/117 114/192/118 115/193/119
f 113/191/117 115/193/119 116/194/120
f 117/195/121 118/196/122 114/192/118
f 117/195/121 114/192/118 113/191/117
f 91/155/93 99/170/103 119/197/123
f 91/155/93 119/197/123 92/156/94
f 111/188/115 100/171/104 99/170/103
f 111/188/115 99/170/103 91/155/93
f 120/199/114 112/190/116 113/191/117
f 120/199/114 113/191/117 116/194/120
f 121/202/110 66/119/70 92/156/94
f 121/202/110 92/156/94 119/197/123
f 72/132/47 120/200/114 116/194/120
f 72/132/47 116/194/120 115/193/119
f 109/183/96 77/140/80 114/192/118
f 109/183/96 114/192/118 118/196/122
f 98/169/102 121/203/110 119/197/123
f 98/169/102 119/197/123 99/170/103
f 77/140/80 72/133/47 115/193/119
f 77/140/80 115/193/119 114/192/118
f 122/205/113 109/184/96 118/196/122
f 122/205/113 118/196/122 117/195/121
f 112/190/116 122/206/113 117/195/121
f 112/190/116 117/195/121 113/191/117
f 68/122/75 46/88/46 123/208/49
f 68/122/75 123/208/49 75/137/55
